G04 #@! TF.GenerationSoftware,KiCad,Pcbnew,(5.1.6)-1*
G04 #@! TF.CreationDate,2020-11-03T14:16:57+00:00*
G04 #@! TF.ProjectId,front_panel,66726f6e-745f-4706-916e-656c2e6b6963,rev?*
G04 #@! TF.SameCoordinates,Original*
G04 #@! TF.FileFunction,Legend,Bot*
G04 #@! TF.FilePolarity,Positive*
%FSLAX46Y46*%
G04 Gerber Fmt 4.6, Leading zero omitted, Abs format (unit mm)*
G04 Created by KiCad (PCBNEW (5.1.6)-1) date 2020-11-03 14:16:57*
%MOMM*%
%LPD*%
G01*
G04 APERTURE LIST*
%ADD10C,0.120000*%
%ADD11C,0.150000*%
G04 APERTURE END LIST*
D10*
X126200000Y-122600000D02*
G75*
G03*
X126200000Y-122600000I-700000J0D01*
G01*
D11*
X126142857Y-123548000D02*
X126238095Y-123500380D01*
X126380952Y-123500380D01*
X126523809Y-123548000D01*
X126619047Y-123643238D01*
X126666666Y-123738476D01*
X126714285Y-123928952D01*
X126714285Y-124071809D01*
X126666666Y-124262285D01*
X126619047Y-124357523D01*
X126523809Y-124452761D01*
X126380952Y-124500380D01*
X126285714Y-124500380D01*
X126142857Y-124452761D01*
X126095238Y-124405142D01*
X126095238Y-124071809D01*
X126285714Y-124071809D01*
X125666666Y-123833714D02*
X125666666Y-124500380D01*
X125666666Y-123928952D02*
X125619047Y-123881333D01*
X125523809Y-123833714D01*
X125380952Y-123833714D01*
X125285714Y-123881333D01*
X125238095Y-123976571D01*
X125238095Y-124500380D01*
X124333333Y-124500380D02*
X124333333Y-123500380D01*
X124333333Y-124452761D02*
X124428571Y-124500380D01*
X124619047Y-124500380D01*
X124714285Y-124452761D01*
X124761904Y-124405142D01*
X124809523Y-124309904D01*
X124809523Y-124024190D01*
X124761904Y-123928952D01*
X124714285Y-123881333D01*
X124619047Y-123833714D01*
X124428571Y-123833714D01*
X124333333Y-123881333D01*
M02*
