G04 #@! TF.GenerationSoftware,KiCad,Pcbnew,(5.1.6)-1*
G04 #@! TF.CreationDate,2020-11-03T14:16:58+00:00*
G04 #@! TF.ProjectId,front_panel,66726f6e-745f-4706-916e-656c2e6b6963,rev?*
G04 #@! TF.SameCoordinates,Original*
G04 #@! TF.FileFunction,Soldermask,Bot*
G04 #@! TF.FilePolarity,Negative*
%FSLAX46Y46*%
G04 Gerber Fmt 4.6, Leading zero omitted, Abs format (unit mm)*
G04 Created by KiCad (PCBNEW (5.1.6)-1) date 2020-11-03 14:16:58*
%MOMM*%
%LPD*%
G01*
G04 APERTURE LIST*
%ADD10C,0.100000*%
G04 APERTURE END LIST*
D10*
G36*
X125660721Y-122070174D02*
G01*
X125760995Y-122111709D01*
X125760996Y-122111710D01*
X125851242Y-122172010D01*
X125927990Y-122248758D01*
X125927991Y-122248760D01*
X125988291Y-122339005D01*
X126029826Y-122439279D01*
X126051000Y-122545730D01*
X126051000Y-122654270D01*
X126029826Y-122760721D01*
X125988291Y-122860995D01*
X125988290Y-122860996D01*
X125927990Y-122951242D01*
X125851242Y-123027990D01*
X125805812Y-123058345D01*
X125760995Y-123088291D01*
X125660721Y-123129826D01*
X125554270Y-123151000D01*
X125445730Y-123151000D01*
X125339279Y-123129826D01*
X125239005Y-123088291D01*
X125194188Y-123058345D01*
X125148758Y-123027990D01*
X125072010Y-122951242D01*
X125011710Y-122860996D01*
X125011709Y-122860995D01*
X124970174Y-122760721D01*
X124949000Y-122654270D01*
X124949000Y-122545730D01*
X124970174Y-122439279D01*
X125011709Y-122339005D01*
X125072009Y-122248760D01*
X125072010Y-122248758D01*
X125148758Y-122172010D01*
X125239004Y-122111710D01*
X125239005Y-122111709D01*
X125339279Y-122070174D01*
X125445730Y-122049000D01*
X125554270Y-122049000D01*
X125660721Y-122070174D01*
G37*
M02*
