M48
; DRILL file {KiCad (5.1.6)-1} date 11/03/20 14:17:50
; FORMAT={-:-/ absolute / inch / decimal}
; #@! TF.CreationDate,2020-11-03T14:17:50+00:00
; #@! TF.GenerationSoftware,Kicad,Pcbnew,(5.1.6)-1
; #@! TF.FileFunction,Plated,1,2,PTH
FMAT,2
INCH
T1C0.1181
T2C0.2165
T3C0.2756
T4C0.4921
%
G90
G05
T1
X1.2795Y-1.3425
X1.2795Y-5.0039
X4.9409Y-1.3425
X4.9409Y-5.0039
T2
X1.4567Y-2.8583
X1.4567Y-3.4094
X1.4567Y-3.9606
X1.4567Y-4.5118
X1.9094Y-2.0315
X2.5256Y-4.8776
X2.6181Y-2.0315
X2.7953Y-2.8583
X2.7953Y-3.4094
X2.7953Y-3.9606
X2.7953Y-4.5118
X3.3268Y-2.0315
X3.7598Y-3.0157
X3.7598Y-4.9055
X4.1339Y-2.0315
X4.7441Y-3.0157
X4.7441Y-4.9055
X4.8425Y-2.0315
T3
X1.5748Y-1.7953
X3.4252Y-2.7795
X3.4252Y-3.8425
X3.4252Y-4.6693
X4.4094Y-3.8425
X4.4094Y-4.6693
T4
X1.7913Y-2.622
X1.7913Y-3.1732
X1.7913Y-3.7244
X1.7913Y-4.2756
X2.126Y-4.7874
X2.2835Y-1.7953
X2.4606Y-2.622
X2.4606Y-3.1732
X2.4606Y-3.7244
X2.4606Y-4.2756
X2.9921Y-1.7953
X3.7992Y-1.7953
X4.4094Y-2.7795
X4.5079Y-1.7953
T0
M30
