M48
; DRILL file {KiCad (5.1.6)-1} date 01/18/21 15:04:34
; FORMAT={-:-/ absolute / inch / decimal}
; #@! TF.CreationDate,2021-01-18T15:04:34+00:00
; #@! TF.GenerationSoftware,Kicad,Pcbnew,(5.1.6)-1
; #@! TF.FileFunction,Plated,1,2,PTH
FMAT,2
INCH
T1C0.0157
T2C0.0354
T3C0.0394
T4C0.0512
T5C0.0591
T6C0.0728
T7C0.1181
%
G90
G05
T1
X3.9921Y-4.5
X4.0354Y-5.6575
X4.0591Y-3.0157
X4.0669Y-4.4173
X4.0862Y-4.5837
X4.1024Y-3.8858
X4.1063Y-4.2913
X4.1299Y-3.8465
X4.1417Y-3.937
X4.1575Y-4.0236
X4.1969Y-5.626
X4.2283Y-5.4173
X4.27Y-5.5
X4.35Y-3.05
X4.3819Y-5.2126
X4.3937Y-4.1299
X4.4055Y-4.6732
X4.4252Y-5.7913
X4.43Y-2.97
X4.4331Y-3.0748
X4.4646Y-4.6417
X4.61Y-2.94
X4.7559Y-3.2362
X4.7677Y-3.1024
X4.7913Y-4.3031
X4.8661Y-5.0197
X4.8819Y-3.1388
X4.8819Y-3.3819
X4.8819Y-4.2992
X4.8859Y-3.2077
X4.9085Y-3.5394
X4.92Y-2.22
X4.9213Y-4.622
X4.9449Y-3.5709
X4.9449Y-4.7008
X4.9528Y-5.0118
X4.9606Y-3.063
X4.9646Y-3.1102
X4.97Y-4.19
X4.98Y-2.91
X5.01Y-2.23
X5.05Y-2.88
X5.06Y-2.99
X5.0778Y-4.6271
X5.08Y-4.35
X5.15Y-2.99
X5.185Y-3.0551
X5.374Y-4.3228
X5.4Y-5.52
X5.4528Y-3.6693
X5.4606Y-4.2559
X5.4921Y-4.8071
X5.51Y-2.13
X5.56Y-2.92
X5.56Y-3.08
X5.61Y-3.08
X5.6496Y-4.4803
X5.69Y-2.69
X5.69Y-2.84
X5.6959Y-4.465
X5.7Y-2.02
X5.7047Y-3.2205
X5.7323Y-4.0354
X5.753Y-4.1356
X5.7677Y-3.626
X5.7677Y-4.0748
X5.7677Y-5.5118
X5.7992Y-3.2402
X5.7992Y-3.9488
X5.815Y-5.5079
X5.8228Y-3.8858
X5.8423Y-3.7843
X5.8543Y-4.5315
X5.8602Y-4.9311
X5.8622Y-5.5
X5.8632Y-3.8455
X5.8829Y-4.7165
X5.9055Y-5.4961
X5.9134Y-4.6772
X5.9449Y-2.2274
X5.9449Y-2.2687
X5.9567Y-4.1654
X5.9646Y-3.1969
X5.9764Y-4.8465
X5.9803Y-5.6654
X6.0079Y-3.7835
X6.08Y-3.71
X6.19Y-5.24
X6.2Y-5.6
X6.21Y-4.77
X6.24Y-3.19
X6.2717Y-4.4055
X6.276Y-4.4446
X6.33Y-2.83
X6.33Y-2.94
X6.3504Y-4.8346
X6.3539Y-4.4446
X6.3583Y-4.4055
X6.378Y-5.6535
X6.38Y-2.84
X6.3976Y-3.8307
X6.4409Y-4.8268
X6.46Y-2.76
X6.4966Y-5.5615
X6.7835Y-5.7323
X6.8153Y-5.7608
X6.8228Y-5.2992
X6.87Y-3.04
X6.9Y-2.9
X6.9Y-3.9
X6.9055Y-4.3346
X6.937Y-3.7559
X6.94Y-3.03
X6.9567Y-5.6654
X6.9764Y-4.3189
X6.9882Y-4.8465
X7.0276Y-3.7362
X7.05Y-4.76
X7.2Y-5.59
X7.24Y-2.99
X7.2731Y-5.4227
X7.29Y-3.9
X7.3Y-3.83
X7.3661Y-5.6575
X7.374Y-4.8346
X7.6102Y-5.1024
X7.6654Y-4.8661
X7.7126Y-4.7323
X7.7643Y-3.5378
X7.7677Y-3.6614
X7.7707Y-5.1378
X7.811Y-3.4843
X7.8194Y-3.5635
T2
X5.5157Y-5.2756
X5.5657Y-5.2756
X5.6157Y-5.2756
X5.6657Y-5.2756
X4.6299Y-2.7953
X4.6799Y-2.7953
X4.7299Y-2.7953
X4.7799Y-2.7953
X5.5157Y-4.7244
X5.5657Y-4.7244
X5.6157Y-4.7244
X5.6657Y-4.7244
X6.8543Y-2.7953
X6.9043Y-2.7953
X6.9543Y-2.7953
X7.0043Y-2.7953
X4.1768Y-3.622
X4.2268Y-3.622
X4.2768Y-3.622
X4.3268Y-3.622
X7.4646Y-3.7795
X7.5146Y-3.7795
X7.5646Y-3.7795
X7.6146Y-3.7795
X7.4646Y-5.6693
X7.5146Y-5.6693
X7.5646Y-5.6693
X7.6146Y-5.6693
X4.1768Y-4.1732
X4.2268Y-4.1732
X4.2768Y-4.1732
X4.3268Y-4.1732
X6.0472Y-2.7953
X6.0972Y-2.7953
X6.1472Y-2.7953
X6.1972Y-2.7953
X6.4803Y-3.7795
X6.5303Y-3.7795
X6.5803Y-3.7795
X6.6303Y-3.7795
X4.1768Y-4.7244
X4.2268Y-4.7244
X4.2768Y-4.7244
X4.3268Y-4.7244
X5.5157Y-4.1732
X5.5657Y-4.1732
X5.6157Y-4.1732
X5.6657Y-4.1732
X7.563Y-2.7953
X7.613Y-2.7953
X7.663Y-2.7953
X7.713Y-2.7953
X4.1768Y-5.2756
X4.2268Y-5.2756
X4.2768Y-5.2756
X4.3268Y-5.2756
X5.5157Y-3.622
X5.5657Y-3.622
X5.6157Y-3.622
X5.6657Y-3.622
X6.4803Y-5.6693
X6.5303Y-5.6693
X6.5803Y-5.6693
X6.6303Y-5.6693
X5.3228Y-5.5665
X5.3228Y-5.6165
X5.3228Y-5.6665
X5.3228Y-5.7165
X5.3386Y-2.7953
X5.3886Y-2.7953
X5.4386Y-2.7953
X5.4886Y-2.7953
T3
X4.2717Y-2.2835
X4.2717Y-2.8543
X4.3701Y-2.8543
X4.4685Y-2.2835
X4.4685Y-2.8543
X6.122Y-4.3307
X6.122Y-4.9016
X6.2205Y-4.9016
X6.3189Y-4.3307
X6.3189Y-4.9016
X4.6213Y-3.2626
X4.6213Y-3.3626
X4.6213Y-3.4626
X4.6213Y-3.5626
X4.6213Y-3.6626
X4.6213Y-3.7626
X4.6213Y-3.8626
X4.6213Y-3.9626
X4.6213Y-4.0626
X4.6213Y-4.1626
X4.6213Y-4.2626
X4.6213Y-4.3626
X4.6213Y-4.4626
X4.6213Y-4.5626
X4.6213Y-4.6626
X4.6213Y-4.7626
X4.6213Y-4.8626
X4.6213Y-4.9626
X4.6213Y-5.0626
X4.6213Y-5.1626
X5.2213Y-3.2626
X5.2213Y-3.3626
X5.2213Y-3.4626
X5.2213Y-3.5626
X5.2213Y-3.6626
X5.2213Y-3.7626
X5.2213Y-3.8626
X5.2213Y-3.9626
X5.2213Y-4.0626
X5.2213Y-4.1626
X5.2213Y-4.2626
X5.2213Y-4.3626
X5.2213Y-4.4626
X5.2213Y-4.5626
X5.2213Y-4.6626
X5.2213Y-4.7626
X5.2213Y-4.8626
X5.2213Y-4.9626
X5.2213Y-5.0626
X5.2213Y-5.1626
X7.1063Y-5.1575
X7.1063Y-5.7283
X7.2047Y-5.7283
X7.3031Y-5.1575
X7.3031Y-5.7283
X6.122Y-5.1575
X6.122Y-5.7283
X6.2205Y-5.7283
X6.3189Y-5.1575
X6.3189Y-5.7283
X6.122Y-3.2677
X6.122Y-3.8386
X6.2205Y-3.8386
X6.3189Y-3.2677
X6.3189Y-3.8386
X7.1063Y-4.3307
X7.1063Y-4.9016
X7.2047Y-4.9016
X7.3031Y-4.3307
X7.3031Y-4.9016
T4
X4.6752Y-5.4528
X4.6752Y-5.6496
X5.1673Y-5.4528
X5.1673Y-5.6496
X4.3406Y-4.9409
X4.3406Y-5.1378
X4.8327Y-4.9409
X4.8327Y-5.1378
X4.8327Y-2.4606
X4.8327Y-2.6575
X5.3248Y-2.4606
X5.3248Y-2.6575
X5.0098Y-4.9409
X5.0098Y-5.1378
X5.502Y-4.9409
X5.502Y-5.1378
X5.0098Y-4.3898
X5.0098Y-4.5866
X5.502Y-4.3898
X5.502Y-4.5866
X7.0571Y-2.4606
X7.0571Y-2.6575
X7.5492Y-2.4606
X7.5492Y-2.6575
X6.9587Y-3.4449
X6.9587Y-3.6417
X7.4508Y-3.4449
X7.4508Y-3.6417
X5.5413Y-2.4606
X5.5413Y-2.6575
X6.0335Y-2.4606
X6.0335Y-2.6575
X6.3484Y-2.4606
X6.3484Y-2.6575
X6.8406Y-2.4606
X6.8406Y-2.6575
X4.3406Y-3.2874
X4.3406Y-3.4843
X4.8327Y-3.2874
X4.8327Y-3.4843
X4.3406Y-3.8386
X4.3406Y-4.0354
X4.8327Y-3.8386
X4.8327Y-4.0354
X5.0098Y-3.8386
X5.0098Y-4.0354
X5.502Y-3.8386
X5.502Y-4.0354
X4.3406Y-4.3898
X4.3406Y-4.5866
X4.8327Y-4.3898
X4.8327Y-4.5866
X5.0098Y-3.2874
X5.0098Y-3.4843
X5.502Y-3.2874
X5.502Y-3.4843
T6
X4.7913Y-2.1969
X6.0039Y-3.0118
X4.6024Y-2.2008
X5.8268Y-3.0079
X4.122Y-5.4646
T7
X4.0748Y-2.1063
X4.0748Y-5.7677
X7.7362Y-2.1063
X7.7362Y-5.7677
T5
G00X6.9843Y-4.6319
M15
G01X6.9843Y-4.5807
M16
G05
G00X7.4252Y-4.6319
M15
G01X7.4252Y-4.5807
M16
G05
G00X4.1496Y-2.5846
M15
G01X4.1496Y-2.5335
M16
G05
G00X4.5906Y-2.5846
M15
G01X4.5906Y-2.5335
M16
G05
G00X6.0Y-4.6319
M15
G01X6.0Y-4.5807
M16
G05
G00X6.4409Y-4.6319
M15
G01X6.4409Y-4.5807
M16
G05
G00X6.9843Y-5.4587
M15
G01X6.9843Y-5.4075
M16
G05
G00X7.4252Y-5.4587
M15
G01X7.4252Y-5.4075
M16
G05
G00X6.0Y-5.4587
M15
G01X6.0Y-5.4075
M16
G05
G00X6.4409Y-5.4587
M15
G01X6.4409Y-5.4075
M16
G05
G00X6.0Y-3.5689
M15
G01X6.0Y-3.5177
M16
G05
G00X6.4409Y-3.5689
M15
G01X6.4409Y-3.5177
M16
G05
T0
M30
