G04 #@! TF.GenerationSoftware,KiCad,Pcbnew,(5.1.6)-1*
G04 #@! TF.CreationDate,2021-01-19T20:21:15+00:00*
G04 #@! TF.ProjectId,scope_user_interface,73636f70-655f-4757-9365-725f696e7465,rev?*
G04 #@! TF.SameCoordinates,Original*
G04 #@! TF.FileFunction,Copper,L1,Top*
G04 #@! TF.FilePolarity,Positive*
%FSLAX46Y46*%
G04 Gerber Fmt 4.6, Leading zero omitted, Abs format (unit mm)*
G04 Created by KiCad (PCBNEW (5.1.6)-1) date 2021-01-19 20:21:15*
%MOMM*%
%LPD*%
G01*
G04 APERTURE LIST*
G04 #@! TA.AperFunction,ComponentPad*
%ADD10C,3.400000*%
G04 #@! TD*
G04 #@! TA.AperFunction,SMDPad,CuDef*
%ADD11R,1.000000X1.900000*%
G04 #@! TD*
G04 #@! TA.AperFunction,SMDPad,CuDef*
%ADD12R,1.800000X1.900000*%
G04 #@! TD*
G04 #@! TA.AperFunction,SMDPad,CuDef*
%ADD13R,1.650000X1.300000*%
G04 #@! TD*
G04 #@! TA.AperFunction,SMDPad,CuDef*
%ADD14R,1.425000X1.550000*%
G04 #@! TD*
G04 #@! TA.AperFunction,SMDPad,CuDef*
%ADD15R,0.450000X1.380000*%
G04 #@! TD*
G04 #@! TA.AperFunction,ComponentPad*
%ADD16O,2.000000X1.200000*%
G04 #@! TD*
G04 #@! TA.AperFunction,ComponentPad*
%ADD17R,2.000000X2.000000*%
G04 #@! TD*
G04 #@! TA.AperFunction,ComponentPad*
%ADD18C,2.000000*%
G04 #@! TD*
G04 #@! TA.AperFunction,ComponentPad*
%ADD19R,2.000000X3.200000*%
G04 #@! TD*
G04 #@! TA.AperFunction,ComponentPad*
%ADD20O,3.048000X1.850000*%
G04 #@! TD*
G04 #@! TA.AperFunction,ComponentPad*
%ADD21O,1.070000X1.800000*%
G04 #@! TD*
G04 #@! TA.AperFunction,ComponentPad*
%ADD22R,1.070000X1.800000*%
G04 #@! TD*
G04 #@! TA.AperFunction,ComponentPad*
%ADD23O,1.800000X1.070000*%
G04 #@! TD*
G04 #@! TA.AperFunction,ComponentPad*
%ADD24R,1.800000X1.070000*%
G04 #@! TD*
G04 #@! TA.AperFunction,ViaPad*
%ADD25C,3.100000*%
G04 #@! TD*
G04 #@! TA.AperFunction,ViaPad*
%ADD26C,0.800000*%
G04 #@! TD*
G04 #@! TA.AperFunction,Conductor*
%ADD27C,0.250000*%
G04 #@! TD*
G04 #@! TA.AperFunction,Conductor*
%ADD28C,0.200000*%
G04 #@! TD*
G04 APERTURE END LIST*
D10*
X148000000Y-76400000D03*
D11*
X148450000Y-51400000D03*
D12*
X151150000Y-51400000D03*
D13*
X146625000Y-51400000D03*
X153375000Y-51400000D03*
D14*
X147512500Y-53975000D03*
X152487500Y-53975000D03*
D15*
X148700000Y-54060000D03*
X149350000Y-54060000D03*
X150000000Y-54060000D03*
X150650000Y-54060000D03*
X151300000Y-54060000D03*
D10*
X116900000Y-55900000D03*
X152500000Y-76500000D03*
X121700000Y-55800000D03*
X104700000Y-138800000D03*
D16*
X117380000Y-82870000D03*
X132620000Y-82870000D03*
X117380000Y-85410000D03*
X132620000Y-85410000D03*
X117380000Y-87950000D03*
X132620000Y-87950000D03*
X117380000Y-90490000D03*
X132620000Y-90490000D03*
X117380000Y-93030000D03*
X132620000Y-93030000D03*
X117380000Y-95570000D03*
X132620000Y-95570000D03*
X117380000Y-98110000D03*
X132620000Y-98110000D03*
X117380000Y-100650000D03*
X132620000Y-100650000D03*
X117380000Y-103190000D03*
X132620000Y-103190000D03*
X117380000Y-105730000D03*
X132620000Y-105730000D03*
X117380000Y-108270000D03*
X132620000Y-108270000D03*
X117380000Y-110810000D03*
X132620000Y-110810000D03*
X117380000Y-113350000D03*
X132620000Y-113350000D03*
X117380000Y-115890000D03*
X132620000Y-115890000D03*
X117380000Y-118430000D03*
X132620000Y-118430000D03*
X117380000Y-120970000D03*
X132620000Y-120970000D03*
X117380000Y-123510000D03*
X132620000Y-123510000D03*
X117380000Y-126050000D03*
X132620000Y-126050000D03*
X117380000Y-128590000D03*
X132620000Y-128590000D03*
X117380000Y-131130000D03*
X132620000Y-131130000D03*
D17*
X108500000Y-72500000D03*
D18*
X111000000Y-72500000D03*
X113500000Y-72500000D03*
D19*
X105400000Y-65000000D03*
X116600000Y-65000000D03*
D18*
X108500000Y-58000000D03*
X113500000Y-58000000D03*
D20*
X110250000Y-88500000D03*
X110250000Y-83500000D03*
X122750000Y-88500000D03*
X122750000Y-83500000D03*
X122750000Y-97500000D03*
X122750000Y-102500000D03*
X110250000Y-97500000D03*
X110250000Y-102500000D03*
D21*
X168410000Y-144000000D03*
X167140000Y-144000000D03*
X165870000Y-144000000D03*
D22*
X164600000Y-144000000D03*
D21*
X195910000Y-71000000D03*
X194640000Y-71000000D03*
X193370000Y-71000000D03*
D22*
X192100000Y-71000000D03*
D21*
X168410000Y-96000000D03*
X167140000Y-96000000D03*
X165870000Y-96000000D03*
D22*
X164600000Y-96000000D03*
D21*
X193410000Y-144000000D03*
X192140000Y-144000000D03*
X190870000Y-144000000D03*
D22*
X189600000Y-144000000D03*
D21*
X177910000Y-71000000D03*
X176640000Y-71000000D03*
X175370000Y-71000000D03*
D22*
X174100000Y-71000000D03*
D21*
X121410000Y-71000000D03*
X120140000Y-71000000D03*
X118870000Y-71000000D03*
D22*
X117600000Y-71000000D03*
D21*
X139410000Y-71000000D03*
X138140000Y-71000000D03*
X136870000Y-71000000D03*
D22*
X135600000Y-71000000D03*
D21*
X143910000Y-92000000D03*
X142640000Y-92000000D03*
X141370000Y-92000000D03*
D22*
X140100000Y-92000000D03*
D21*
X143910000Y-106000000D03*
X142640000Y-106000000D03*
X141370000Y-106000000D03*
D22*
X140100000Y-106000000D03*
D21*
X157410000Y-71000000D03*
X156140000Y-71000000D03*
X154870000Y-71000000D03*
D22*
X153600000Y-71000000D03*
D21*
X193410000Y-96000000D03*
X192140000Y-96000000D03*
X190870000Y-96000000D03*
D22*
X189600000Y-96000000D03*
D21*
X143910000Y-120000000D03*
X142640000Y-120000000D03*
X141370000Y-120000000D03*
D22*
X140100000Y-120000000D03*
D21*
X143910000Y-134000000D03*
X142640000Y-134000000D03*
X141370000Y-134000000D03*
D22*
X140100000Y-134000000D03*
D23*
X135200000Y-141390000D03*
X135200000Y-142660000D03*
X135200000Y-143930000D03*
D24*
X135200000Y-145200000D03*
D21*
X106090000Y-134000000D03*
X107360000Y-134000000D03*
X108630000Y-134000000D03*
D22*
X109900000Y-134000000D03*
D21*
X106090000Y-120000000D03*
X107360000Y-120000000D03*
X108630000Y-120000000D03*
D22*
X109900000Y-120000000D03*
D21*
X106090000Y-106000000D03*
X107360000Y-106000000D03*
X108630000Y-106000000D03*
D22*
X109900000Y-106000000D03*
D21*
X106090000Y-92000000D03*
X107360000Y-92000000D03*
X108630000Y-92000000D03*
D22*
X109900000Y-92000000D03*
D20*
X127250000Y-88500000D03*
X127250000Y-83500000D03*
X139750000Y-88500000D03*
X139750000Y-83500000D03*
D17*
X155500000Y-97500000D03*
D18*
X158000000Y-97500000D03*
X160500000Y-97500000D03*
D19*
X152400000Y-90000000D03*
X163600000Y-90000000D03*
D18*
X155500000Y-83000000D03*
X160500000Y-83000000D03*
D17*
X180500000Y-145500000D03*
D18*
X183000000Y-145500000D03*
X185500000Y-145500000D03*
D19*
X177400000Y-138000000D03*
X188600000Y-138000000D03*
D18*
X180500000Y-131000000D03*
X185500000Y-131000000D03*
D20*
X179250000Y-67500000D03*
X179250000Y-62500000D03*
X191750000Y-67500000D03*
X191750000Y-62500000D03*
X139750000Y-125500000D03*
X139750000Y-130500000D03*
X127250000Y-125500000D03*
X127250000Y-130500000D03*
X122750000Y-125500000D03*
X122750000Y-130500000D03*
X110250000Y-125500000D03*
X110250000Y-130500000D03*
X131250000Y-138500000D03*
X131250000Y-143500000D03*
X118750000Y-138500000D03*
X118750000Y-143500000D03*
X110250000Y-116500000D03*
X110250000Y-111500000D03*
X122750000Y-116500000D03*
X122750000Y-111500000D03*
X161250000Y-67500000D03*
X161250000Y-62500000D03*
X173750000Y-67500000D03*
X173750000Y-62500000D03*
X140750000Y-67500000D03*
X140750000Y-62500000D03*
X153250000Y-67500000D03*
X153250000Y-62500000D03*
D17*
X155500000Y-124500000D03*
D18*
X158000000Y-124500000D03*
X160500000Y-124500000D03*
D19*
X152400000Y-117000000D03*
X163600000Y-117000000D03*
D18*
X155500000Y-110000000D03*
X160500000Y-110000000D03*
D20*
X122750000Y-67500000D03*
X122750000Y-62500000D03*
X135250000Y-67500000D03*
X135250000Y-62500000D03*
D17*
X180500000Y-124500000D03*
D18*
X183000000Y-124500000D03*
X185500000Y-124500000D03*
D19*
X177400000Y-117000000D03*
X188600000Y-117000000D03*
D18*
X180500000Y-110000000D03*
X185500000Y-110000000D03*
D20*
X139750000Y-97500000D03*
X139750000Y-102500000D03*
X127250000Y-97500000D03*
X127250000Y-102500000D03*
D17*
X155500000Y-145500000D03*
D18*
X158000000Y-145500000D03*
X160500000Y-145500000D03*
D19*
X152400000Y-138000000D03*
X163600000Y-138000000D03*
D18*
X155500000Y-131000000D03*
X160500000Y-131000000D03*
D20*
X176750000Y-92500000D03*
X176750000Y-87500000D03*
X189250000Y-92500000D03*
X189250000Y-87500000D03*
X127250000Y-116500000D03*
X127250000Y-111500000D03*
X139750000Y-116500000D03*
X139750000Y-111500000D03*
D25*
X103500000Y-53500000D03*
X196500000Y-146500000D03*
X103500000Y-146500000D03*
X196500000Y-53500000D03*
D26*
X157480000Y-142240000D03*
X154432000Y-94234000D03*
X117094000Y-74676000D03*
X158496000Y-81026000D03*
X157226000Y-133096000D03*
X144780000Y-51308000D03*
X157734000Y-121158000D03*
X121100000Y-78800000D03*
X179070000Y-120904000D03*
X160782000Y-71882000D03*
X139954000Y-54102000D03*
X182880000Y-141986000D03*
X148924680Y-97675320D03*
X149425010Y-119800000D03*
X147300000Y-100300000D03*
X148900000Y-139700000D03*
X139700000Y-137160000D03*
X150200000Y-118800000D03*
X148395198Y-96120518D03*
X147900000Y-98700000D03*
X150000000Y-139600000D03*
X146500000Y-103500000D03*
X147700000Y-139900000D03*
X129032000Y-110490000D03*
X124100623Y-81474990D03*
X128975322Y-117528118D03*
X124675980Y-89900000D03*
X125600000Y-90700000D03*
X124000000Y-79725010D03*
X113400000Y-117900000D03*
X125600000Y-119400000D03*
X104900000Y-97700000D03*
X105600000Y-102200000D03*
X125800000Y-127300000D03*
X125000000Y-117400000D03*
X161500000Y-111900000D03*
X178500000Y-94900000D03*
X177200000Y-109700000D03*
X136500000Y-109800000D03*
X159300000Y-111900000D03*
X198400000Y-88500000D03*
X175400000Y-110100000D03*
X121700000Y-109300000D03*
X145600000Y-102500000D03*
X124000000Y-109200000D03*
X164084000Y-70104000D03*
X151500000Y-81200000D03*
X162052000Y-72136000D03*
X151300000Y-105800000D03*
X143500000Y-113800000D03*
X148850000Y-125250000D03*
X148700000Y-115100000D03*
X144900002Y-81800002D03*
X123600000Y-127500000D03*
X144674990Y-113410133D03*
X193300000Y-129600000D03*
X106600000Y-142900000D03*
X102500000Y-143700000D03*
X101400000Y-114300000D03*
X104300000Y-109000000D03*
X112400000Y-147100000D03*
X197374990Y-130500000D03*
X198612660Y-90512660D03*
X197300000Y-93000000D03*
X110490000Y-77470000D03*
X130810000Y-75946000D03*
X112522000Y-75438000D03*
X160782000Y-74676000D03*
X144526000Y-72136000D03*
X128524000Y-75946000D03*
X144526000Y-68326000D03*
X127254000Y-56642000D03*
X176276000Y-76962000D03*
X124968000Y-56388000D03*
X174498000Y-77216000D03*
X126000000Y-77800000D03*
X104200000Y-98700000D03*
X146500000Y-92100000D03*
X195900000Y-120200000D03*
X194700000Y-123600000D03*
X105200000Y-100000000D03*
X103100000Y-76600000D03*
X131700000Y-77600000D03*
X177500000Y-123100000D03*
X161300000Y-122800000D03*
X165013674Y-141260990D03*
X147300000Y-82300000D03*
X162000000Y-143600000D03*
X162500000Y-97300000D03*
X187300000Y-122800000D03*
X163600000Y-122600000D03*
X151800000Y-123100000D03*
X176700000Y-143900000D03*
X184737500Y-137737500D03*
X120800000Y-82200000D03*
X152600000Y-96100000D03*
X151900000Y-143900000D03*
X187100000Y-143700000D03*
X124000000Y-85900000D03*
X126100000Y-79000000D03*
X112600000Y-78100000D03*
X103789684Y-116425010D03*
X103300000Y-112200000D03*
X176200000Y-95400000D03*
X159410432Y-112893896D03*
X197213968Y-89860712D03*
X161389568Y-112893896D03*
X126238000Y-106426000D03*
X111600000Y-104900000D03*
X111900000Y-118700000D03*
X111300000Y-132400000D03*
X139500000Y-122100000D03*
X138700000Y-108100000D03*
X138500000Y-93200000D03*
X173300000Y-134600000D03*
X173108169Y-146325010D03*
X151000000Y-57625000D03*
X151000000Y-56575000D03*
X172300000Y-145600000D03*
X107400000Y-137600000D03*
X175260000Y-73660000D03*
X142494000Y-78232000D03*
X185166000Y-99060000D03*
X175260000Y-99060000D03*
X128270000Y-73152000D03*
X141224000Y-74168000D03*
X185420000Y-97282000D03*
X141224000Y-78232000D03*
X183896000Y-75946000D03*
X126492000Y-73914000D03*
X137160000Y-140208000D03*
X108458000Y-139700000D03*
D27*
X116078000Y-69596000D02*
X116078000Y-73660000D01*
X139954000Y-54102000D02*
X146550000Y-53975000D01*
X158000000Y-141720000D02*
X158000000Y-133084000D01*
X160274000Y-71882000D02*
X160782000Y-71882000D01*
X157226000Y-133096000D02*
X157988000Y-133096000D01*
X144872000Y-51400000D02*
X144780000Y-51308000D01*
X157988000Y-133096000D02*
X158000000Y-133084000D01*
X155067000Y-53975000D02*
X158750000Y-57658000D01*
X152487500Y-53975000D02*
X155067000Y-53975000D01*
X139827000Y-53975000D02*
X139954000Y-54102000D01*
X158000000Y-133084000D02*
X158000000Y-124500000D01*
X116078000Y-73660000D02*
X117094000Y-74676000D01*
X158750000Y-70358000D02*
X160274000Y-71882000D01*
X146625000Y-51400000D02*
X144872000Y-51400000D01*
X158750000Y-57658000D02*
X158750000Y-70358000D01*
X132620000Y-131130000D02*
X132620000Y-128590000D01*
X128625000Y-53975000D02*
X139827000Y-53975000D01*
X157734000Y-90932000D02*
X157734000Y-81734000D01*
X119800000Y-65874000D02*
X116078000Y-69596000D01*
X116900000Y-55900000D02*
X119800000Y-58800000D01*
X112268000Y-74676000D02*
X111000000Y-73408000D01*
X158496000Y-81026000D02*
X157788000Y-81734000D01*
X183000000Y-145500000D02*
X183000000Y-146184000D01*
X157734000Y-97766000D02*
X158000000Y-97500000D01*
X178308000Y-146812000D02*
X176784000Y-146812000D01*
X182880000Y-124620000D02*
X183000000Y-124500000D01*
X183000000Y-146184000D02*
X182358999Y-146825001D01*
X157788000Y-81734000D02*
X157734000Y-81734000D01*
X182358999Y-146825001D02*
X178321001Y-146825001D01*
X119800000Y-58800000D02*
X119800000Y-65874000D01*
X119800000Y-58800000D02*
X123800000Y-58800000D01*
X146550000Y-53975000D02*
X147512500Y-53975000D01*
X117094000Y-74676000D02*
X112268000Y-74676000D01*
X182880000Y-141986000D02*
X182880000Y-124620000D01*
X153375000Y-53087500D02*
X152487500Y-53975000D01*
X147512500Y-52287500D02*
X146625000Y-51400000D01*
X151150000Y-51400000D02*
X153375000Y-51400000D01*
X171958000Y-141986000D02*
X157734000Y-141986000D01*
X123800000Y-58800000D02*
X128625000Y-53975000D01*
X157734000Y-81734000D02*
X152500000Y-76500000D01*
X157734000Y-141986000D02*
X157480000Y-142240000D01*
X153375000Y-51400000D02*
X153375000Y-53087500D01*
X176784000Y-146812000D02*
X171958000Y-141986000D01*
X178321001Y-146825001D02*
X178308000Y-146812000D01*
X157480000Y-142240000D02*
X158000000Y-141720000D01*
X147512500Y-53975000D02*
X147512500Y-52287500D01*
X154432000Y-94234000D02*
X157734000Y-90932000D01*
X111000000Y-73408000D02*
X111000000Y-72500000D01*
X157734000Y-121158000D02*
X157734000Y-97766000D01*
X148450000Y-51400000D02*
X151150000Y-51400000D01*
X146625000Y-51400000D02*
X148450000Y-51400000D01*
X147512500Y-53975000D02*
X148615000Y-53975000D01*
X148615000Y-53975000D02*
X148700000Y-54060000D01*
X149350000Y-54060000D02*
X148700000Y-54060000D01*
X115280000Y-85410000D02*
X114430000Y-84560000D01*
X117380000Y-85410000D02*
X115280000Y-85410000D01*
X114430000Y-84560000D02*
X114430000Y-82835685D01*
X114430000Y-82835685D02*
X118332842Y-78932842D01*
X121100000Y-78800000D02*
X118465684Y-78800000D01*
X118465684Y-78800000D02*
X118332842Y-78932842D01*
X149425010Y-98175650D02*
X149425010Y-119800000D01*
X148924680Y-97675320D02*
X149425010Y-98175650D01*
X147699999Y-100699999D02*
X147300000Y-100300000D01*
X147300000Y-105577824D02*
X147699999Y-105177825D01*
X148900000Y-139700000D02*
X148900000Y-130600000D01*
X147699999Y-105177825D02*
X147699999Y-100699999D01*
X147300000Y-129000000D02*
X147300000Y-105577824D01*
X148900000Y-130600000D02*
X147300000Y-129000000D01*
X117380000Y-131130000D02*
X119192000Y-131130000D01*
X119192000Y-131130000D02*
X121666000Y-133604000D01*
X121666000Y-133604000D02*
X136144000Y-133604000D01*
X136144000Y-133604000D02*
X139700000Y-137160000D01*
X150200000Y-118800000D02*
X150200000Y-97925320D01*
X150200000Y-97925320D02*
X148395198Y-96120518D01*
X148100000Y-115673002D02*
X147874999Y-115448001D01*
X147874999Y-115448001D02*
X147874999Y-114751999D01*
X148100000Y-128200000D02*
X148100000Y-115673002D01*
X150000000Y-130100000D02*
X148100000Y-128200000D01*
X148299999Y-99099999D02*
X147900000Y-98700000D01*
X148299999Y-114326999D02*
X148299999Y-99099999D01*
X150000000Y-139600000D02*
X150000000Y-130100000D01*
X147874999Y-114751999D02*
X148299999Y-114326999D01*
X146899999Y-103899999D02*
X146500000Y-103500000D01*
X146899999Y-105341414D02*
X146899999Y-103899999D01*
X146750011Y-130050011D02*
X146750011Y-115450011D01*
X147700000Y-139900000D02*
X147700000Y-131000000D01*
X146750011Y-115450011D02*
X146700000Y-115400000D01*
X146750011Y-115450011D02*
X146750011Y-105491402D01*
X146750011Y-105491402D02*
X146899999Y-105341414D01*
X147700000Y-131000000D02*
X146750011Y-130050011D01*
X124675980Y-89900000D02*
X124675980Y-86297022D01*
X128975322Y-117528118D02*
X129286000Y-117217440D01*
X124725001Y-82099368D02*
X124500622Y-81874989D01*
X124675980Y-86297022D02*
X124725001Y-86248001D01*
X129286000Y-110744000D02*
X129032000Y-110490000D01*
X124725001Y-86248001D02*
X124725001Y-82099368D01*
X129286000Y-117217440D02*
X129286000Y-110744000D01*
X124500622Y-81874989D02*
X124100623Y-81474990D01*
X125400990Y-90500990D02*
X125400990Y-81126000D01*
X125600000Y-90700000D02*
X125400990Y-90500990D01*
X125400990Y-81126000D02*
X124000000Y-79725010D01*
X113400000Y-117900000D02*
X115370000Y-117900000D01*
X115370000Y-117900000D02*
X117380000Y-115890000D01*
X125200000Y-119800000D02*
X125600000Y-119400000D01*
X125000000Y-111383219D02*
X125100000Y-111283219D01*
X125000000Y-117400000D02*
X125000000Y-111383219D01*
X125800000Y-127300000D02*
X125200000Y-126700000D01*
X119390000Y-103190000D02*
X117380000Y-103190000D01*
X125100000Y-111283219D02*
X125100000Y-108900000D01*
X125200000Y-126700000D02*
X125200000Y-119800000D01*
X125100000Y-108900000D02*
X119390000Y-103190000D01*
X105999999Y-101800001D02*
X105999999Y-98799999D01*
X105999999Y-98799999D02*
X104900000Y-97700000D01*
X105600000Y-102200000D02*
X105999999Y-101800001D01*
X126601409Y-109764999D02*
X135899314Y-109764999D01*
X117380000Y-100650000D02*
X123650000Y-100650000D01*
X135934315Y-109800000D02*
X136500000Y-109800000D01*
X124800000Y-107963590D02*
X126601409Y-109764999D01*
X123650000Y-100650000D02*
X124800000Y-101800000D01*
X135899314Y-109764999D02*
X135934315Y-109800000D01*
X124800000Y-101800000D02*
X124800000Y-107963590D01*
X175400000Y-110100000D02*
X176800000Y-110100000D01*
X159300000Y-111900000D02*
X161500000Y-111900000D01*
X178500000Y-94900000D02*
X179500000Y-93900000D01*
X194200000Y-93900000D02*
X198400000Y-89700000D01*
X176800000Y-110100000D02*
X177200000Y-109700000D01*
X179500000Y-93900000D02*
X194200000Y-93900000D01*
X198400000Y-89700000D02*
X198400000Y-88500000D01*
X145400000Y-102700000D02*
X145400000Y-114500000D01*
X151300000Y-105800000D02*
X150900000Y-105400000D01*
X149300000Y-83400000D02*
X151500000Y-81200000D01*
X144300000Y-114600000D02*
X143500000Y-113800000D01*
X145400000Y-114500000D02*
X145300000Y-114600000D01*
X162052000Y-72136000D02*
X164084000Y-70104000D01*
X145600000Y-102500000D02*
X145400000Y-102700000D01*
X123900000Y-109300000D02*
X124000000Y-109200000D01*
X150900000Y-97300000D02*
X149300000Y-95700000D01*
X145300000Y-114600000D02*
X144300000Y-114600000D01*
X150900000Y-105400000D02*
X150900000Y-97300000D01*
X149300000Y-95700000D02*
X149300000Y-83400000D01*
X121700000Y-109300000D02*
X123900000Y-109300000D01*
X129323323Y-118253119D02*
X128627321Y-118253119D01*
X124700000Y-126400000D02*
X123600000Y-127500000D01*
X132620000Y-115890000D02*
X131686442Y-115890000D01*
X128574202Y-118200000D02*
X125200000Y-118200000D01*
X128627321Y-118253119D02*
X128574202Y-118200000D01*
X124700000Y-118700000D02*
X124700000Y-126400000D01*
X144785988Y-82479701D02*
X144785988Y-113299135D01*
X144900002Y-81800002D02*
X144900002Y-82365687D01*
X125200000Y-118200000D02*
X124700000Y-118700000D01*
X148700000Y-115100000D02*
X148700000Y-125100000D01*
X144900002Y-82365687D02*
X144785988Y-82479701D01*
X144785988Y-113299135D02*
X144674990Y-113410133D01*
X148700000Y-125100000D02*
X148850000Y-125250000D01*
X131686442Y-115890000D02*
X129323323Y-118253119D01*
X198400000Y-147500000D02*
X197524999Y-148375001D01*
X193300000Y-129600000D02*
X196474990Y-129600000D01*
X102500000Y-143700000D02*
X103300000Y-142900000D01*
X102400000Y-110900000D02*
X102400000Y-113300000D01*
X104300000Y-109000000D02*
X102400000Y-110900000D01*
X102400000Y-113300000D02*
X101400000Y-114300000D01*
X197000000Y-148900000D02*
X114200000Y-148900000D01*
X114200000Y-148900000D02*
X112400000Y-147100000D01*
X103300000Y-142900000D02*
X106600000Y-142900000D01*
X197524999Y-148375001D02*
X197000000Y-148900000D01*
X197300000Y-91825320D02*
X198612660Y-90512660D01*
X197374990Y-131474990D02*
X197200000Y-131649980D01*
X197200000Y-131649980D02*
X197200000Y-144400000D01*
X197374990Y-130500000D02*
X197374990Y-131474990D01*
X197300000Y-93000000D02*
X197300000Y-91825320D01*
X196474990Y-129600000D02*
X197374990Y-130500000D01*
X198400000Y-145600000D02*
X198400000Y-147500000D01*
X197200000Y-144400000D02*
X198400000Y-145600000D01*
X145288000Y-73660000D02*
X142748000Y-76200000D01*
X160782000Y-74676000D02*
X158496000Y-74676000D01*
X142240000Y-56642000D02*
X144526000Y-58928000D01*
X111252000Y-80264000D02*
X113030000Y-82042000D01*
X111252000Y-78232000D02*
X111252000Y-80264000D01*
X113030000Y-82042000D02*
X113030000Y-86614000D01*
X174752000Y-76962000D02*
X174498000Y-77216000D01*
X176276000Y-76962000D02*
X174752000Y-76962000D01*
X110490000Y-77470000D02*
X111252000Y-78232000D01*
X145288000Y-73660000D02*
X145288000Y-72898000D01*
X144526000Y-68072000D02*
X144526000Y-68326000D01*
X144526000Y-58928000D02*
X144526000Y-68072000D01*
X152654000Y-56642000D02*
X151300000Y-55288000D01*
X113030000Y-86614000D02*
X114366000Y-87950000D01*
X131064000Y-76200000D02*
X130810000Y-75946000D01*
X152654000Y-58166000D02*
X152654000Y-56642000D01*
X142748000Y-76200000D02*
X131064000Y-76200000D01*
X127254000Y-56642000D02*
X142240000Y-56642000D01*
X123872000Y-55800000D02*
X124460000Y-56388000D01*
X158496000Y-74676000D02*
X154178000Y-74676000D01*
X128524000Y-75946000D02*
X113284000Y-75946000D01*
X153162000Y-73660000D02*
X145288000Y-73660000D01*
X151300000Y-55288000D02*
X151300000Y-54060000D01*
X124460000Y-56388000D02*
X124968000Y-56388000D01*
X144526000Y-58928000D02*
X151892000Y-58928000D01*
X121700000Y-55800000D02*
X123872000Y-55800000D01*
X121700000Y-55800000D02*
X123016000Y-55800000D01*
X114366000Y-87950000D02*
X117380000Y-87950000D01*
X113030000Y-75946000D02*
X112522000Y-75438000D01*
X113284000Y-75946000D02*
X113030000Y-75946000D01*
X154178000Y-74676000D02*
X153162000Y-73660000D01*
X151892000Y-58928000D02*
X152654000Y-58166000D01*
X145288000Y-72898000D02*
X144526000Y-72136000D01*
X195900000Y-120200000D02*
X195900000Y-122400000D01*
X122873004Y-77800000D02*
X122873004Y-77773004D01*
X103100000Y-76600000D02*
X118392695Y-76600000D01*
X132099999Y-77200001D02*
X131700000Y-77600000D01*
X104900000Y-100000000D02*
X105200000Y-100000000D01*
X104200000Y-99300000D02*
X104900000Y-100000000D01*
X146500000Y-80700000D02*
X143000001Y-77200001D01*
X146500000Y-92100000D02*
X146500000Y-80700000D01*
X143000001Y-77200001D02*
X132099999Y-77200001D01*
X122873004Y-77773004D02*
X121700000Y-76600000D01*
X121700000Y-76600000D02*
X118392695Y-76600000D01*
X126000000Y-77800000D02*
X122873004Y-77800000D01*
X195900000Y-122400000D02*
X194700000Y-123600000D01*
X104200000Y-98700000D02*
X104200000Y-99300000D01*
X169327399Y-141260990D02*
X165013674Y-141260990D01*
X147300000Y-82300000D02*
X148000000Y-81600000D01*
X176700000Y-143900000D02*
X174060990Y-141260990D01*
X177500000Y-123100000D02*
X187000000Y-123100000D01*
X161000000Y-123100000D02*
X161300000Y-122800000D01*
X120700000Y-85000000D02*
X120700000Y-82300000D01*
X183700000Y-136700000D02*
X184737500Y-137737500D01*
X164900000Y-121300000D02*
X165900000Y-120300000D01*
X187300000Y-122800000D02*
X187300000Y-125300000D01*
X183700000Y-128900000D02*
X183700000Y-136700000D01*
X163400000Y-122800000D02*
X163600000Y-122600000D01*
X187300000Y-125300000D02*
X183700000Y-128900000D01*
X165900000Y-104500000D02*
X162500000Y-101100000D01*
X152600000Y-96100000D02*
X161300000Y-96100000D01*
X174060990Y-141260990D02*
X169327399Y-141260990D01*
X151800000Y-123100000D02*
X161000000Y-123100000D01*
X120700000Y-82300000D02*
X120800000Y-82200000D01*
X148000000Y-81600000D02*
X148000000Y-76400000D01*
X124000000Y-85900000D02*
X121600000Y-85900000D01*
X161300000Y-96100000D02*
X162500000Y-97300000D01*
X162500000Y-101100000D02*
X162500000Y-97300000D01*
X121600000Y-85900000D02*
X120700000Y-85000000D01*
X165900000Y-120300000D02*
X165900000Y-104500000D01*
X161300000Y-122800000D02*
X163400000Y-122800000D01*
X163600000Y-122600000D02*
X164900000Y-121300000D01*
X187000000Y-123100000D02*
X187300000Y-122800000D01*
X151900000Y-143900000D02*
X161700000Y-143900000D01*
X161700000Y-143900000D02*
X162000000Y-143600000D01*
X186900000Y-143900000D02*
X187100000Y-143700000D01*
X176700000Y-143900000D02*
X186900000Y-143900000D01*
X113000000Y-77700000D02*
X112600000Y-78100000D01*
X126100000Y-79000000D02*
X122700000Y-79000000D01*
X122700000Y-79000000D02*
X121400000Y-77700000D01*
X121400000Y-77700000D02*
X113000000Y-77700000D01*
X103300000Y-112200000D02*
X103300000Y-115935326D01*
X103300000Y-115935326D02*
X103789684Y-116425010D01*
X159410432Y-112893896D02*
X161389568Y-112893896D01*
X194574680Y-92500000D02*
X197213968Y-89860712D01*
X176200000Y-95400000D02*
X176200000Y-93050000D01*
X176200000Y-93050000D02*
X176750000Y-92500000D01*
X189250000Y-92500000D02*
X194574680Y-92500000D01*
X110998000Y-90424000D02*
X112268000Y-91694000D01*
X125400990Y-93904990D02*
X125400990Y-105588990D01*
X106090000Y-90760000D02*
X106426000Y-90424000D01*
X126238000Y-106426000D02*
X125400990Y-105588990D01*
X106090000Y-92000000D02*
X106090000Y-90760000D01*
X112268000Y-91694000D02*
X123190000Y-91694000D01*
X106426000Y-90424000D02*
X110998000Y-90424000D01*
X123190000Y-91694000D02*
X125400990Y-93904990D01*
X109900000Y-92100000D02*
X112200000Y-94400000D01*
X111700000Y-104900000D02*
X111600000Y-104900000D01*
X109900000Y-92000000D02*
X109900000Y-92100000D01*
X112200000Y-104400000D02*
X111700000Y-104900000D01*
X112200000Y-94400000D02*
X112200000Y-104400000D01*
X110000000Y-106000000D02*
X112600000Y-108600000D01*
X109900000Y-106000000D02*
X110000000Y-106000000D01*
X112600000Y-108600000D02*
X112600000Y-118000000D01*
X112600000Y-118000000D02*
X111900000Y-118700000D01*
X109900000Y-120000000D02*
X109900000Y-120400000D01*
X112600000Y-123100000D02*
X112600000Y-132000000D01*
X112600000Y-132000000D02*
X112200000Y-132400000D01*
X109900000Y-120400000D02*
X112600000Y-123100000D01*
X112200000Y-132400000D02*
X111300000Y-132400000D01*
X109900000Y-134000000D02*
X109900000Y-138950000D01*
X109900000Y-138950000D02*
X112249978Y-141299978D01*
X135109978Y-141299978D02*
X112249978Y-141299978D01*
X135200000Y-141390000D02*
X135109978Y-141299978D01*
X143910000Y-134000000D02*
X143910000Y-137640000D01*
X143910000Y-137640000D02*
X136350000Y-145200000D01*
X136350000Y-145200000D02*
X135200000Y-145200000D01*
X138850000Y-132850000D02*
X137500000Y-131500000D01*
X137500000Y-131500000D02*
X137500000Y-123600000D01*
X140100000Y-132850000D02*
X138850000Y-132850000D01*
X137500000Y-123600000D02*
X139000000Y-122100000D01*
X139000000Y-122100000D02*
X139500000Y-122100000D01*
X140100000Y-132850000D02*
X140100000Y-134000000D01*
X137600000Y-109200000D02*
X138700000Y-108100000D01*
X140100000Y-118700000D02*
X138800000Y-118700000D01*
X137600000Y-117500000D02*
X137600000Y-109200000D01*
X140100000Y-118700000D02*
X140100000Y-120000000D01*
X138800000Y-118700000D02*
X137600000Y-117500000D01*
X139150000Y-104850000D02*
X137600000Y-103300000D01*
X140100000Y-104850000D02*
X139150000Y-104850000D01*
X140100000Y-104850000D02*
X140100000Y-106000000D01*
X137600000Y-94100000D02*
X138500000Y-93200000D01*
X137600000Y-103300000D02*
X137600000Y-94100000D01*
X128526851Y-72226851D02*
X129900000Y-73600000D01*
X130700000Y-78900000D02*
X134500000Y-78900000D01*
X136600000Y-81000000D02*
X136600000Y-88500000D01*
X129900000Y-78100000D02*
X130700000Y-78900000D01*
X122946298Y-71000000D02*
X124173149Y-72226851D01*
X124173149Y-72226851D02*
X128526851Y-72226851D01*
X134500000Y-78900000D02*
X136600000Y-81000000D01*
X136600000Y-88500000D02*
X140100000Y-92000000D01*
X121410000Y-71000000D02*
X122946298Y-71000000D01*
X129900000Y-73600000D02*
X129900000Y-78100000D01*
X134300000Y-72800000D02*
X138760000Y-72800000D01*
X124700000Y-71600000D02*
X133100000Y-71600000D01*
X133100000Y-71600000D02*
X134300000Y-72800000D01*
X117600000Y-69850000D02*
X117850000Y-69600000D01*
X138760000Y-72800000D02*
X139410000Y-72150000D01*
X117600000Y-71000000D02*
X117600000Y-69850000D01*
X117850000Y-69600000D02*
X122700000Y-69600000D01*
X139410000Y-72150000D02*
X139410000Y-71000000D01*
X122700000Y-69600000D02*
X124700000Y-71600000D01*
X152538610Y-69324979D02*
X136125021Y-69324979D01*
X156809989Y-69249989D02*
X152613600Y-69249989D01*
X152613600Y-69249989D02*
X152538610Y-69324979D01*
X157410000Y-69850000D02*
X156809989Y-69249989D01*
X135600000Y-69850000D02*
X135600000Y-71000000D01*
X136125021Y-69324979D02*
X136050000Y-69400000D01*
X157410000Y-71000000D02*
X157410000Y-69850000D01*
X136050000Y-69400000D02*
X136100000Y-69400000D01*
X136050000Y-69400000D02*
X135600000Y-69850000D01*
X177910000Y-71000000D02*
X177910000Y-72150000D01*
X177910000Y-72150000D02*
X177385002Y-72674998D01*
X177385002Y-72674998D02*
X173551998Y-72674998D01*
X173551998Y-72674998D02*
X173426996Y-72800000D01*
X161642998Y-72800000D02*
X154250000Y-72800000D01*
X161703999Y-72861001D02*
X161642998Y-72800000D01*
X162400001Y-72861001D02*
X161703999Y-72861001D01*
X154250000Y-72800000D02*
X153600000Y-72150000D01*
X162461002Y-72800000D02*
X162400001Y-72861001D01*
X153600000Y-72150000D02*
X153600000Y-71000000D01*
X173426996Y-72800000D02*
X162461002Y-72800000D01*
X195910000Y-71000000D02*
X195910000Y-69850000D01*
X174100000Y-69850000D02*
X174100000Y-71000000D01*
X195560000Y-69500000D02*
X174450000Y-69500000D01*
X195910000Y-69850000D02*
X195560000Y-69500000D01*
X174450000Y-69500000D02*
X174100000Y-69850000D01*
X170900000Y-78900000D02*
X175100000Y-74700000D01*
X175100000Y-74700000D02*
X190300000Y-74700000D01*
X170900000Y-93900000D02*
X170900000Y-78900000D01*
X190300000Y-74700000D02*
X192100000Y-72900000D01*
X168800000Y-96000000D02*
X170900000Y-93900000D01*
X192100000Y-72900000D02*
X192100000Y-71000000D01*
X168410000Y-96000000D02*
X168800000Y-96000000D01*
X187325002Y-95751998D02*
X188302001Y-94774999D01*
X164600000Y-97300000D02*
X165450011Y-98150011D01*
X164600000Y-96000000D02*
X164600000Y-97300000D01*
X188302001Y-94774999D02*
X193334999Y-94774999D01*
X193410000Y-96000000D02*
X193410000Y-95410000D01*
X193334999Y-94774999D02*
X193410000Y-94850000D01*
X187325002Y-96548002D02*
X187325002Y-95751998D01*
X193410000Y-94850000D02*
X193410000Y-96000000D01*
X165450011Y-98150011D02*
X185722993Y-98150011D01*
X185722993Y-98150011D02*
X187325002Y-96548002D01*
X181200000Y-112900000D02*
X184000000Y-110100000D01*
X173300000Y-117914998D02*
X178314998Y-112900000D01*
X184000000Y-110100000D02*
X184000000Y-101600000D01*
X184000000Y-101600000D02*
X189600000Y-96000000D01*
X178314998Y-112900000D02*
X181200000Y-112900000D01*
X173300000Y-134600000D02*
X173300000Y-117914998D01*
X164600000Y-145150000D02*
X165025000Y-145575000D01*
X167247362Y-146325010D02*
X173108169Y-146325010D01*
X166497352Y-145575000D02*
X167247362Y-146325010D01*
X164600000Y-144000000D02*
X164600000Y-145150000D01*
X165025000Y-145575000D02*
X166497352Y-145575000D01*
D28*
X150100000Y-55195001D02*
X150000000Y-55095001D01*
X150100000Y-56918200D02*
X150100000Y-55195001D01*
X150000000Y-55095001D02*
X150000000Y-54060000D01*
X150506800Y-57325000D02*
X150100000Y-56918200D01*
X151000000Y-57625000D02*
X150700000Y-57325000D01*
X150700000Y-57325000D02*
X150506800Y-57325000D01*
X151000000Y-56575000D02*
X150700000Y-56875000D01*
X150650000Y-55095001D02*
X150650000Y-54060000D01*
X150550000Y-56731800D02*
X150550000Y-55195001D01*
X150550000Y-55195001D02*
X150650000Y-55095001D01*
X150693200Y-56875000D02*
X150550000Y-56731800D01*
X150700000Y-56875000D02*
X150693200Y-56875000D01*
D27*
X170434000Y-93472000D02*
X170434000Y-78486000D01*
X142640000Y-78378000D02*
X142494000Y-78232000D01*
X169418000Y-94488000D02*
X170434000Y-93472000D01*
X167140000Y-96000000D02*
X167140000Y-94850000D01*
X167502000Y-94488000D02*
X169418000Y-94488000D01*
X170434000Y-78486000D02*
X175260000Y-73660000D01*
X175260000Y-99060000D02*
X185166000Y-99060000D01*
X142640000Y-92000000D02*
X142640000Y-78378000D01*
X167140000Y-145240000D02*
X167140000Y-144000000D01*
X111549989Y-141749989D02*
X108300000Y-138500000D01*
X142640000Y-106000000D02*
X142640000Y-120000000D01*
X121158000Y-73152000D02*
X128270000Y-73152000D01*
X108300000Y-138500000D02*
X107400000Y-137600000D01*
X107360000Y-120000000D02*
X107360000Y-134000000D01*
X107360000Y-106000000D02*
X107360000Y-120000000D01*
X167500000Y-145600000D02*
X167140000Y-145240000D01*
X132503180Y-141749989D02*
X111549989Y-141749989D01*
X142640000Y-134000000D02*
X142640000Y-136660000D01*
X136640000Y-142660000D02*
X135200000Y-142660000D01*
X167140000Y-94850000D02*
X167502000Y-94488000D01*
X120140000Y-72134000D02*
X121158000Y-73152000D01*
X120140000Y-71000000D02*
X120140000Y-72134000D01*
X107360000Y-106000000D02*
X107360000Y-92000000D01*
X172300000Y-145600000D02*
X167500000Y-145600000D01*
X142640000Y-120000000D02*
X142640000Y-134000000D01*
X133413191Y-142660000D02*
X132503180Y-141749989D01*
X135200000Y-142660000D02*
X133413191Y-142660000D01*
X142640000Y-106000000D02*
X142640000Y-92000000D01*
X142640000Y-136660000D02*
X136640000Y-142660000D01*
X140640990Y-69774990D02*
X154794990Y-69774990D01*
X165870000Y-144000000D02*
X165870000Y-142850000D01*
X166029989Y-142690011D02*
X171392011Y-142690011D01*
X183896000Y-75946000D02*
X183896000Y-75184000D01*
X140640990Y-69774990D02*
X136945010Y-69774990D01*
X176022000Y-147320000D02*
X188700000Y-147320000D01*
X141224000Y-74168000D02*
X141224000Y-70358000D01*
X141370000Y-91294000D02*
X141986000Y-90678000D01*
X141986000Y-78994000D02*
X141224000Y-78232000D01*
X188700000Y-147320000D02*
X190870000Y-145150000D01*
X183896000Y-75184000D02*
X175260000Y-75184000D01*
X136870000Y-69850000D02*
X136870000Y-71000000D01*
X154870000Y-69850000D02*
X154870000Y-71000000D01*
X165870000Y-142850000D02*
X166029989Y-142690011D01*
X141370000Y-92000000D02*
X141370000Y-91294000D01*
X190500000Y-75184000D02*
X183896000Y-75184000D01*
X136945010Y-69774990D02*
X136870000Y-69850000D01*
X171392011Y-142690011D02*
X176022000Y-147320000D01*
X141224000Y-70358000D02*
X140640990Y-69774990D01*
X141986000Y-90678000D02*
X141986000Y-78994000D01*
X190870000Y-145150000D02*
X190870000Y-144000000D01*
X154794990Y-69774990D02*
X154870000Y-69850000D01*
X118870000Y-72134000D02*
X120396000Y-73660000D01*
X175260000Y-75184000D02*
X171450000Y-78994000D01*
X118870000Y-71000000D02*
X118870000Y-72134000D01*
X141986000Y-121766000D02*
X141370000Y-121150000D01*
X165870000Y-97290000D02*
X165870000Y-96000000D01*
X171450000Y-78994000D02*
X171450000Y-95758000D01*
X141986000Y-107766000D02*
X141370000Y-107150000D01*
X185166000Y-97536000D02*
X185420000Y-97282000D01*
X141986000Y-104394000D02*
X141986000Y-93766000D01*
X141986000Y-118110000D02*
X141986000Y-107766000D01*
X141370000Y-106000000D02*
X141370000Y-105010000D01*
X169672000Y-97536000D02*
X166116000Y-97536000D01*
X141370000Y-120000000D02*
X141370000Y-118726000D01*
X171450000Y-95758000D02*
X169672000Y-97536000D01*
X141370000Y-105010000D02*
X141986000Y-104394000D01*
X141370000Y-134000000D02*
X141370000Y-132950000D01*
X141370000Y-118726000D02*
X141986000Y-118110000D01*
X141370000Y-107150000D02*
X141370000Y-106000000D01*
X141370000Y-121150000D02*
X141370000Y-120000000D01*
X169672000Y-97536000D02*
X185166000Y-97536000D01*
X166116000Y-97536000D02*
X165870000Y-97290000D01*
X193370000Y-72314000D02*
X190500000Y-75184000D01*
X193370000Y-71000000D02*
X193370000Y-72314000D01*
X141986000Y-132334000D02*
X141986000Y-121766000D01*
X126238000Y-73660000D02*
X126492000Y-73914000D01*
X141370000Y-132950000D02*
X141986000Y-132334000D01*
X141370000Y-93150000D02*
X141370000Y-92000000D01*
X120396000Y-73660000D02*
X126238000Y-73660000D01*
X141986000Y-93766000D02*
X141370000Y-93150000D01*
X107950000Y-132170000D02*
X108630000Y-132850000D01*
X141370000Y-134000000D02*
X141370000Y-136760000D01*
X108630000Y-92000000D02*
X108630000Y-93150000D01*
X108630000Y-122002000D02*
X107950000Y-122682000D01*
X107950000Y-93830000D02*
X107950000Y-104170000D01*
X137922000Y-140208000D02*
X137160000Y-140208000D01*
X141370000Y-136760000D02*
X137922000Y-140208000D01*
X108630000Y-118850000D02*
X108630000Y-120000000D01*
X113616000Y-144858000D02*
X108458000Y-139700000D01*
X108630000Y-104850000D02*
X108630000Y-106000000D01*
X133096000Y-144858000D02*
X113616000Y-144858000D01*
X135200000Y-143930000D02*
X134024000Y-143930000D01*
X107950000Y-104170000D02*
X108630000Y-104850000D01*
X108630000Y-93150000D02*
X107950000Y-93830000D01*
X108630000Y-120000000D02*
X108630000Y-122002000D01*
X108630000Y-107524000D02*
X107950000Y-108204000D01*
X107950000Y-122682000D02*
X107950000Y-132170000D01*
X108630000Y-132850000D02*
X108630000Y-134000000D01*
X107950000Y-108204000D02*
X107950000Y-118170000D01*
X108630000Y-106000000D02*
X108630000Y-107524000D01*
X107950000Y-118170000D02*
X108630000Y-118850000D01*
X134024000Y-143930000D02*
X133096000Y-144858000D01*
M02*
