G04 #@! TF.GenerationSoftware,KiCad,Pcbnew,(5.1.6)-1*
G04 #@! TF.CreationDate,2021-01-18T15:00:45+00:00*
G04 #@! TF.ProjectId,scope_user_interface,73636f70-655f-4757-9365-725f696e7465,rev?*
G04 #@! TF.SameCoordinates,Original*
G04 #@! TF.FileFunction,Legend,Top*
G04 #@! TF.FilePolarity,Positive*
%FSLAX46Y46*%
G04 Gerber Fmt 4.6, Leading zero omitted, Abs format (unit mm)*
G04 Created by KiCad (PCBNEW (5.1.6)-1) date 2021-01-18 15:00:45*
%MOMM*%
%LPD*%
G01*
G04 APERTURE LIST*
%ADD10C,1.000000*%
%ADD11C,0.100000*%
%ADD12C,0.400000*%
%ADD13C,0.250000*%
%ADD14C,0.300000*%
%ADD15C,0.200000*%
G04 APERTURE END LIST*
D10*
X60693077Y-177326468D02*
G75*
G03*
X60693077Y-177326468I-2500000J0D01*
G01*
D11*
G36*
X54161303Y-174125718D02*
G01*
X55005926Y-174858256D01*
X55659207Y-175128854D01*
X56543459Y-175303781D01*
X57236368Y-175016769D01*
X56041891Y-176052734D01*
X55692036Y-177821236D01*
X56074720Y-178745116D01*
X55230097Y-178012578D01*
X54114875Y-177933322D01*
X53190996Y-178316005D01*
X52705385Y-178825293D01*
X54002790Y-176356161D01*
X53969961Y-173663779D01*
X54161303Y-174125718D01*
G37*
X54161303Y-174125718D02*
X55005926Y-174858256D01*
X55659207Y-175128854D01*
X56543459Y-175303781D01*
X57236368Y-175016769D01*
X56041891Y-176052734D01*
X55692036Y-177821236D01*
X56074720Y-178745116D01*
X55230097Y-178012578D01*
X54114875Y-177933322D01*
X53190996Y-178316005D01*
X52705385Y-178825293D01*
X54002790Y-176356161D01*
X53969961Y-173663779D01*
X54161303Y-174125718D01*
D10*
X53969961Y-173663779D02*
X53587278Y-172739899D01*
D12*
X52704461Y-178826675D02*
G75*
G02*
X56074719Y-178745117I1713842J-1145748D01*
G01*
X57236369Y-175016769D02*
G75*
G02*
X53969961Y-173663779I-956709J2309699D01*
G01*
X60693077Y-177326468D02*
G75*
G03*
X60693077Y-177326468I-2500000J0D01*
G01*
D11*
G36*
X54161303Y-174125718D02*
G01*
X55005926Y-174858256D01*
X55659207Y-175128854D01*
X56543459Y-175303781D01*
X57236368Y-175016769D01*
X56041891Y-176052734D01*
X55692036Y-177821236D01*
X56074720Y-178745116D01*
X55230097Y-178012578D01*
X54114875Y-177933322D01*
X53190996Y-178316005D01*
X52705385Y-178825293D01*
X54002790Y-176356161D01*
X53969961Y-173663779D01*
X54161303Y-174125718D01*
G37*
X54161303Y-174125718D02*
X55005926Y-174858256D01*
X55659207Y-175128854D01*
X56543459Y-175303781D01*
X57236368Y-175016769D01*
X56041891Y-176052734D01*
X55692036Y-177821236D01*
X56074720Y-178745116D01*
X55230097Y-178012578D01*
X54114875Y-177933322D01*
X53190996Y-178316005D01*
X52705385Y-178825293D01*
X54002790Y-176356161D01*
X53969961Y-173663779D01*
X54161303Y-174125718D01*
D10*
X57236369Y-175016769D02*
G75*
G02*
X53969961Y-173663779I-956709J2309699D01*
G01*
X54044001Y-175036000D02*
G75*
G03*
X54044001Y-175036000I-6000001J0D01*
G01*
X52704461Y-178826675D02*
G75*
G02*
X56074719Y-178745117I1713842J-1145748D01*
G01*
X31044000Y-165536000D02*
G75*
G03*
X33544000Y-163036000I0J2500000D01*
G01*
X33544000Y-163036000D02*
X33544000Y-162036000D01*
X36688925Y-167321607D02*
G75*
G03*
X33544001Y-168536001I-1144925J-1714393D01*
G01*
X33544000Y-168036000D02*
G75*
G03*
X33544000Y-168036000I-2500000J0D01*
G01*
D11*
G36*
X34544000Y-165536000D02*
G01*
X36687542Y-167320685D01*
X36044000Y-167036000D01*
X35044000Y-167036000D01*
X34044000Y-167536000D01*
X33544000Y-168536000D01*
X33544000Y-167536000D01*
X32544000Y-166036000D01*
X31044000Y-165536000D01*
X31794000Y-165536000D01*
X32544000Y-165036000D01*
X33044000Y-164536000D01*
X33544000Y-163536000D01*
X33544000Y-163036000D01*
X34544000Y-165536000D01*
G37*
X34544000Y-165536000D02*
X36687542Y-167320685D01*
X36044000Y-167036000D01*
X35044000Y-167036000D01*
X34044000Y-167536000D01*
X33544000Y-168536000D01*
X33544000Y-167536000D01*
X32544000Y-166036000D01*
X31044000Y-165536000D01*
X31794000Y-165536000D01*
X32544000Y-165036000D01*
X33044000Y-164536000D01*
X33544000Y-163536000D01*
X33544000Y-163036000D01*
X34544000Y-165536000D01*
D10*
X45544000Y-162036000D02*
G75*
G03*
X45544000Y-162036000I-6000000J0D01*
G01*
X31044000Y-151536000D02*
G75*
G03*
X33544000Y-149036000I0J2500000D01*
G01*
X33544000Y-149036000D02*
X33544000Y-148036000D01*
X36688925Y-153321607D02*
G75*
G03*
X33544001Y-154536001I-1144925J-1714393D01*
G01*
X33544000Y-154036000D02*
G75*
G03*
X33544000Y-154036000I-2500000J0D01*
G01*
D11*
G36*
X34544000Y-151536000D02*
G01*
X36687542Y-153320685D01*
X36044000Y-153036000D01*
X35044000Y-153036000D01*
X34044000Y-153536000D01*
X33544000Y-154536000D01*
X33544000Y-153536000D01*
X32544000Y-152036000D01*
X31044000Y-151536000D01*
X31794000Y-151536000D01*
X32544000Y-151036000D01*
X33044000Y-150536000D01*
X33544000Y-149536000D01*
X33544000Y-149036000D01*
X34544000Y-151536000D01*
G37*
X34544000Y-151536000D02*
X36687542Y-153320685D01*
X36044000Y-153036000D01*
X35044000Y-153036000D01*
X34044000Y-153536000D01*
X33544000Y-154536000D01*
X33544000Y-153536000D01*
X32544000Y-152036000D01*
X31044000Y-151536000D01*
X31794000Y-151536000D01*
X32544000Y-151036000D01*
X33044000Y-150536000D01*
X33544000Y-149536000D01*
X33544000Y-149036000D01*
X34544000Y-151536000D01*
D10*
X45544000Y-148036000D02*
G75*
G03*
X45544000Y-148036000I-6000000J0D01*
G01*
X31044000Y-137536000D02*
G75*
G03*
X33544000Y-135036000I0J2500000D01*
G01*
X33544000Y-135036000D02*
X33544000Y-134036000D01*
X36688925Y-139321607D02*
G75*
G03*
X33544001Y-140536001I-1144925J-1714393D01*
G01*
X33544000Y-140036000D02*
G75*
G03*
X33544000Y-140036000I-2500000J0D01*
G01*
D11*
G36*
X34544000Y-137536000D02*
G01*
X36687542Y-139320685D01*
X36044000Y-139036000D01*
X35044000Y-139036000D01*
X34044000Y-139536000D01*
X33544000Y-140536000D01*
X33544000Y-139536000D01*
X32544000Y-138036000D01*
X31044000Y-137536000D01*
X31794000Y-137536000D01*
X32544000Y-137036000D01*
X33044000Y-136536000D01*
X33544000Y-135536000D01*
X33544000Y-135036000D01*
X34544000Y-137536000D01*
G37*
X34544000Y-137536000D02*
X36687542Y-139320685D01*
X36044000Y-139036000D01*
X35044000Y-139036000D01*
X34044000Y-139536000D01*
X33544000Y-140536000D01*
X33544000Y-139536000D01*
X32544000Y-138036000D01*
X31044000Y-137536000D01*
X31794000Y-137536000D01*
X32544000Y-137036000D01*
X33044000Y-136536000D01*
X33544000Y-135536000D01*
X33544000Y-135036000D01*
X34544000Y-137536000D01*
D10*
X45544000Y-134036000D02*
G75*
G03*
X45544000Y-134036000I-6000000J0D01*
G01*
X89544000Y-127536000D02*
G75*
G02*
X87044000Y-125036000I0J2500000D01*
G01*
X87044000Y-125036000D02*
X87044000Y-124036000D01*
X87044000Y-124036000D02*
G75*
G03*
X87044000Y-124036000I-6000000J0D01*
G01*
D11*
G36*
X87044000Y-125536000D02*
G01*
X87544000Y-126536000D01*
X88044000Y-127036000D01*
X88794000Y-127536000D01*
X89544000Y-127536000D01*
X88044000Y-128036000D01*
X87044000Y-129536000D01*
X87044000Y-130536000D01*
X86544000Y-129536000D01*
X85544000Y-129036000D01*
X84544000Y-129036000D01*
X83900458Y-129320685D01*
X86044000Y-127536000D01*
X87044000Y-125036000D01*
X87044000Y-125536000D01*
G37*
X87044000Y-125536000D02*
X87544000Y-126536000D01*
X88044000Y-127036000D01*
X88794000Y-127536000D01*
X89544000Y-127536000D01*
X88044000Y-128036000D01*
X87044000Y-129536000D01*
X87044000Y-130536000D01*
X86544000Y-129536000D01*
X85544000Y-129036000D01*
X84544000Y-129036000D01*
X83900458Y-129320685D01*
X86044000Y-127536000D01*
X87044000Y-125036000D01*
X87044000Y-125536000D01*
D10*
X83899075Y-129321607D02*
G75*
G02*
X87043999Y-130536001I1144925J-1714393D01*
G01*
X92044000Y-130036000D02*
G75*
G03*
X92044000Y-130036000I-2500000J0D01*
G01*
X65044000Y-123536000D02*
G75*
G02*
X62544000Y-121036000I0J2500000D01*
G01*
X62544000Y-121036000D02*
X62544000Y-120036000D01*
X62544000Y-120036000D02*
G75*
G03*
X62544000Y-120036000I-6000000J0D01*
G01*
D11*
G36*
X62544000Y-121536000D02*
G01*
X63044000Y-122536000D01*
X63544000Y-123036000D01*
X64294000Y-123536000D01*
X65044000Y-123536000D01*
X63544000Y-124036000D01*
X62544000Y-125536000D01*
X62544000Y-126536000D01*
X62044000Y-125536000D01*
X61044000Y-125036000D01*
X60044000Y-125036000D01*
X59400458Y-125320685D01*
X61544000Y-123536000D01*
X62544000Y-121036000D01*
X62544000Y-121536000D01*
G37*
X62544000Y-121536000D02*
X63044000Y-122536000D01*
X63544000Y-123036000D01*
X64294000Y-123536000D01*
X65044000Y-123536000D01*
X63544000Y-124036000D01*
X62544000Y-125536000D01*
X62544000Y-126536000D01*
X62044000Y-125536000D01*
X61044000Y-125036000D01*
X60044000Y-125036000D01*
X59400458Y-125320685D01*
X61544000Y-123536000D01*
X62544000Y-121036000D01*
X62544000Y-121536000D01*
D10*
X59399075Y-125321607D02*
G75*
G02*
X62543999Y-126536001I1144925J-1714393D01*
G01*
X67544000Y-126036000D02*
G75*
G03*
X67544000Y-126036000I-2500000J0D01*
G01*
X65044000Y-137536000D02*
G75*
G02*
X62544000Y-135036000I0J2500000D01*
G01*
X62544000Y-135036000D02*
X62544000Y-134036000D01*
X62544000Y-134036000D02*
G75*
G03*
X62544000Y-134036000I-6000000J0D01*
G01*
D11*
G36*
X62544000Y-135536000D02*
G01*
X63044000Y-136536000D01*
X63544000Y-137036000D01*
X64294000Y-137536000D01*
X65044000Y-137536000D01*
X63544000Y-138036000D01*
X62544000Y-139536000D01*
X62544000Y-140536000D01*
X62044000Y-139536000D01*
X61044000Y-139036000D01*
X60044000Y-139036000D01*
X59400458Y-139320685D01*
X61544000Y-137536000D01*
X62544000Y-135036000D01*
X62544000Y-135536000D01*
G37*
X62544000Y-135536000D02*
X63044000Y-136536000D01*
X63544000Y-137036000D01*
X64294000Y-137536000D01*
X65044000Y-137536000D01*
X63544000Y-138036000D01*
X62544000Y-139536000D01*
X62544000Y-140536000D01*
X62044000Y-139536000D01*
X61044000Y-139036000D01*
X60044000Y-139036000D01*
X59400458Y-139320685D01*
X61544000Y-137536000D01*
X62544000Y-135036000D01*
X62544000Y-135536000D01*
D10*
X59399075Y-139321607D02*
G75*
G02*
X62543999Y-140536001I1144925J-1714393D01*
G01*
X67544000Y-140036000D02*
G75*
G03*
X67544000Y-140036000I-2500000J0D01*
G01*
X65044000Y-151536000D02*
G75*
G02*
X62544000Y-149036000I0J2500000D01*
G01*
X62544000Y-149036000D02*
X62544000Y-148036000D01*
X62544000Y-148036000D02*
G75*
G03*
X62544000Y-148036000I-6000000J0D01*
G01*
D11*
G36*
X62544000Y-149536000D02*
G01*
X63044000Y-150536000D01*
X63544000Y-151036000D01*
X64294000Y-151536000D01*
X65044000Y-151536000D01*
X63544000Y-152036000D01*
X62544000Y-153536000D01*
X62544000Y-154536000D01*
X62044000Y-153536000D01*
X61044000Y-153036000D01*
X60044000Y-153036000D01*
X59400458Y-153320685D01*
X61544000Y-151536000D01*
X62544000Y-149036000D01*
X62544000Y-149536000D01*
G37*
X62544000Y-149536000D02*
X63044000Y-150536000D01*
X63544000Y-151036000D01*
X64294000Y-151536000D01*
X65044000Y-151536000D01*
X63544000Y-152036000D01*
X62544000Y-153536000D01*
X62544000Y-154536000D01*
X62044000Y-153536000D01*
X61044000Y-153036000D01*
X60044000Y-153036000D01*
X59400458Y-153320685D01*
X61544000Y-151536000D01*
X62544000Y-149036000D01*
X62544000Y-149536000D01*
D10*
X59399075Y-153321607D02*
G75*
G02*
X62543999Y-154536001I1144925J-1714393D01*
G01*
X67544000Y-154036000D02*
G75*
G03*
X67544000Y-154036000I-2500000J0D01*
G01*
X65044000Y-165536000D02*
G75*
G02*
X62544000Y-163036000I0J2500000D01*
G01*
X62544000Y-163036000D02*
X62544000Y-162036000D01*
X62544000Y-162036000D02*
G75*
G03*
X62544000Y-162036000I-6000000J0D01*
G01*
D11*
G36*
X62544000Y-163536000D02*
G01*
X63044000Y-164536000D01*
X63544000Y-165036000D01*
X64294000Y-165536000D01*
X65044000Y-165536000D01*
X63544000Y-166036000D01*
X62544000Y-167536000D01*
X62544000Y-168536000D01*
X62044000Y-167536000D01*
X61044000Y-167036000D01*
X60044000Y-167036000D01*
X59400458Y-167320685D01*
X61544000Y-165536000D01*
X62544000Y-163036000D01*
X62544000Y-163536000D01*
G37*
X62544000Y-163536000D02*
X63044000Y-164536000D01*
X63544000Y-165036000D01*
X64294000Y-165536000D01*
X65044000Y-165536000D01*
X63544000Y-166036000D01*
X62544000Y-167536000D01*
X62544000Y-168536000D01*
X62044000Y-167536000D01*
X61044000Y-167036000D01*
X60044000Y-167036000D01*
X59400458Y-167320685D01*
X61544000Y-165536000D01*
X62544000Y-163036000D01*
X62544000Y-163536000D01*
D10*
X59399075Y-167321607D02*
G75*
G02*
X62543999Y-168536001I1144925J-1714393D01*
G01*
X67544000Y-168036000D02*
G75*
G03*
X67544000Y-168036000I-2500000J0D01*
G01*
X89544000Y-175536000D02*
G75*
G02*
X87044000Y-173036000I0J2500000D01*
G01*
X87044000Y-173036000D02*
X87044000Y-172036000D01*
X87044000Y-172036000D02*
G75*
G03*
X87044000Y-172036000I-6000000J0D01*
G01*
D11*
G36*
X87044000Y-173536000D02*
G01*
X87544000Y-174536000D01*
X88044000Y-175036000D01*
X88794000Y-175536000D01*
X89544000Y-175536000D01*
X88044000Y-176036000D01*
X87044000Y-177536000D01*
X87044000Y-178536000D01*
X86544000Y-177536000D01*
X85544000Y-177036000D01*
X84544000Y-177036000D01*
X83900458Y-177320685D01*
X86044000Y-175536000D01*
X87044000Y-173036000D01*
X87044000Y-173536000D01*
G37*
X87044000Y-173536000D02*
X87544000Y-174536000D01*
X88044000Y-175036000D01*
X88794000Y-175536000D01*
X89544000Y-175536000D01*
X88044000Y-176036000D01*
X87044000Y-177536000D01*
X87044000Y-178536000D01*
X86544000Y-177536000D01*
X85544000Y-177036000D01*
X84544000Y-177036000D01*
X83900458Y-177320685D01*
X86044000Y-175536000D01*
X87044000Y-173036000D01*
X87044000Y-173536000D01*
D10*
X83899075Y-177321607D02*
G75*
G02*
X87043999Y-178536001I1144925J-1714393D01*
G01*
X92044000Y-178036000D02*
G75*
G03*
X92044000Y-178036000I-2500000J0D01*
G01*
X114544000Y-175536000D02*
G75*
G02*
X112044000Y-173036000I0J2500000D01*
G01*
X112044000Y-173036000D02*
X112044000Y-172036000D01*
X112044000Y-172036000D02*
G75*
G03*
X112044000Y-172036000I-6000000J0D01*
G01*
D11*
G36*
X112044000Y-173536000D02*
G01*
X112544000Y-174536000D01*
X113044000Y-175036000D01*
X113794000Y-175536000D01*
X114544000Y-175536000D01*
X113044000Y-176036000D01*
X112044000Y-177536000D01*
X112044000Y-178536000D01*
X111544000Y-177536000D01*
X110544000Y-177036000D01*
X109544000Y-177036000D01*
X108900458Y-177320685D01*
X111044000Y-175536000D01*
X112044000Y-173036000D01*
X112044000Y-173536000D01*
G37*
X112044000Y-173536000D02*
X112544000Y-174536000D01*
X113044000Y-175036000D01*
X113794000Y-175536000D01*
X114544000Y-175536000D01*
X113044000Y-176036000D01*
X112044000Y-177536000D01*
X112044000Y-178536000D01*
X111544000Y-177536000D01*
X110544000Y-177036000D01*
X109544000Y-177036000D01*
X108900458Y-177320685D01*
X111044000Y-175536000D01*
X112044000Y-173036000D01*
X112044000Y-173536000D01*
D10*
X108899075Y-177321607D02*
G75*
G02*
X112043999Y-178536001I1144925J-1714393D01*
G01*
X117044000Y-178036000D02*
G75*
G03*
X117044000Y-178036000I-2500000J0D01*
G01*
X114544000Y-127536000D02*
G75*
G02*
X112044000Y-125036000I0J2500000D01*
G01*
X112044000Y-125036000D02*
X112044000Y-124036000D01*
X112044000Y-124036000D02*
G75*
G03*
X112044000Y-124036000I-6000000J0D01*
G01*
D11*
G36*
X112044000Y-125536000D02*
G01*
X112544000Y-126536000D01*
X113044000Y-127036000D01*
X113794000Y-127536000D01*
X114544000Y-127536000D01*
X113044000Y-128036000D01*
X112044000Y-129536000D01*
X112044000Y-130536000D01*
X111544000Y-129536000D01*
X110544000Y-129036000D01*
X109544000Y-129036000D01*
X108900458Y-129320685D01*
X111044000Y-127536000D01*
X112044000Y-125036000D01*
X112044000Y-125536000D01*
G37*
X112044000Y-125536000D02*
X112544000Y-126536000D01*
X113044000Y-127036000D01*
X113794000Y-127536000D01*
X114544000Y-127536000D01*
X113044000Y-128036000D01*
X112044000Y-129536000D01*
X112044000Y-130536000D01*
X111544000Y-129536000D01*
X110544000Y-129036000D01*
X109544000Y-129036000D01*
X108900458Y-129320685D01*
X111044000Y-127536000D01*
X112044000Y-125036000D01*
X112044000Y-125536000D01*
D10*
X108899075Y-129321607D02*
G75*
G02*
X112043999Y-130536001I1144925J-1714393D01*
G01*
X117044000Y-130036000D02*
G75*
G03*
X117044000Y-130036000I-2500000J0D01*
G01*
X117044000Y-102536000D02*
G75*
G02*
X114544000Y-100036000I0J2500000D01*
G01*
X114544000Y-100036000D02*
X114544000Y-99036000D01*
X114544000Y-99036000D02*
G75*
G03*
X114544000Y-99036000I-6000000J0D01*
G01*
D11*
G36*
X114544000Y-100536000D02*
G01*
X115044000Y-101536000D01*
X115544000Y-102036000D01*
X116294000Y-102536000D01*
X117044000Y-102536000D01*
X115544000Y-103036000D01*
X114544000Y-104536000D01*
X114544000Y-105536000D01*
X114044000Y-104536000D01*
X113044000Y-104036000D01*
X112044000Y-104036000D01*
X111400458Y-104320685D01*
X113544000Y-102536000D01*
X114544000Y-100036000D01*
X114544000Y-100536000D01*
G37*
X114544000Y-100536000D02*
X115044000Y-101536000D01*
X115544000Y-102036000D01*
X116294000Y-102536000D01*
X117044000Y-102536000D01*
X115544000Y-103036000D01*
X114544000Y-104536000D01*
X114544000Y-105536000D01*
X114044000Y-104536000D01*
X113044000Y-104036000D01*
X112044000Y-104036000D01*
X111400458Y-104320685D01*
X113544000Y-102536000D01*
X114544000Y-100036000D01*
X114544000Y-100536000D01*
D10*
X111399075Y-104321607D02*
G75*
G02*
X114543999Y-105536001I1144925J-1714393D01*
G01*
X119544000Y-105036000D02*
G75*
G03*
X119544000Y-105036000I-2500000J0D01*
G01*
X99044000Y-102536000D02*
G75*
G02*
X96544000Y-100036000I0J2500000D01*
G01*
X96544000Y-100036000D02*
X96544000Y-99036000D01*
X96544000Y-99036000D02*
G75*
G03*
X96544000Y-99036000I-6000000J0D01*
G01*
D11*
G36*
X96544000Y-100536000D02*
G01*
X97044000Y-101536000D01*
X97544000Y-102036000D01*
X98294000Y-102536000D01*
X99044000Y-102536000D01*
X97544000Y-103036000D01*
X96544000Y-104536000D01*
X96544000Y-105536000D01*
X96044000Y-104536000D01*
X95044000Y-104036000D01*
X94044000Y-104036000D01*
X93400458Y-104320685D01*
X95544000Y-102536000D01*
X96544000Y-100036000D01*
X96544000Y-100536000D01*
G37*
X96544000Y-100536000D02*
X97044000Y-101536000D01*
X97544000Y-102036000D01*
X98294000Y-102536000D01*
X99044000Y-102536000D01*
X97544000Y-103036000D01*
X96544000Y-104536000D01*
X96544000Y-105536000D01*
X96044000Y-104536000D01*
X95044000Y-104036000D01*
X94044000Y-104036000D01*
X93400458Y-104320685D01*
X95544000Y-102536000D01*
X96544000Y-100036000D01*
X96544000Y-100536000D01*
D10*
X93399075Y-104321607D02*
G75*
G02*
X96543999Y-105536001I1144925J-1714393D01*
G01*
X101544000Y-105036000D02*
G75*
G03*
X101544000Y-105036000I-2500000J0D01*
G01*
X78544000Y-102536000D02*
G75*
G02*
X76044000Y-100036000I0J2500000D01*
G01*
X76044000Y-100036000D02*
X76044000Y-99036000D01*
X76044000Y-99036000D02*
G75*
G03*
X76044000Y-99036000I-6000000J0D01*
G01*
D11*
G36*
X76044000Y-100536000D02*
G01*
X76544000Y-101536000D01*
X77044000Y-102036000D01*
X77794000Y-102536000D01*
X78544000Y-102536000D01*
X77044000Y-103036000D01*
X76044000Y-104536000D01*
X76044000Y-105536000D01*
X75544000Y-104536000D01*
X74544000Y-104036000D01*
X73544000Y-104036000D01*
X72900458Y-104320685D01*
X75044000Y-102536000D01*
X76044000Y-100036000D01*
X76044000Y-100536000D01*
G37*
X76044000Y-100536000D02*
X76544000Y-101536000D01*
X77044000Y-102036000D01*
X77794000Y-102536000D01*
X78544000Y-102536000D01*
X77044000Y-103036000D01*
X76044000Y-104536000D01*
X76044000Y-105536000D01*
X75544000Y-104536000D01*
X74544000Y-104036000D01*
X73544000Y-104036000D01*
X72900458Y-104320685D01*
X75044000Y-102536000D01*
X76044000Y-100036000D01*
X76044000Y-100536000D01*
D10*
X72899075Y-104321607D02*
G75*
G02*
X76043999Y-105536001I1144925J-1714393D01*
G01*
X81044000Y-105036000D02*
G75*
G03*
X81044000Y-105036000I-2500000J0D01*
G01*
X42544000Y-102536000D02*
G75*
G02*
X40044000Y-100036000I0J2500000D01*
G01*
X40044000Y-100036000D02*
X40044000Y-99036000D01*
X40044000Y-99036000D02*
G75*
G03*
X40044000Y-99036000I-6000000J0D01*
G01*
D11*
G36*
X40044000Y-100536000D02*
G01*
X40544000Y-101536000D01*
X41044000Y-102036000D01*
X41794000Y-102536000D01*
X42544000Y-102536000D01*
X41044000Y-103036000D01*
X40044000Y-104536000D01*
X40044000Y-105536000D01*
X39544000Y-104536000D01*
X38544000Y-104036000D01*
X37544000Y-104036000D01*
X36900458Y-104320685D01*
X39044000Y-102536000D01*
X40044000Y-100036000D01*
X40044000Y-100536000D01*
G37*
X40044000Y-100536000D02*
X40544000Y-101536000D01*
X41044000Y-102036000D01*
X41794000Y-102536000D01*
X42544000Y-102536000D01*
X41044000Y-103036000D01*
X40044000Y-104536000D01*
X40044000Y-105536000D01*
X39544000Y-104536000D01*
X38544000Y-104036000D01*
X37544000Y-104036000D01*
X36900458Y-104320685D01*
X39044000Y-102536000D01*
X40044000Y-100036000D01*
X40044000Y-100536000D01*
D10*
X36899075Y-104321607D02*
G75*
G02*
X40043999Y-105536001I1144925J-1714393D01*
G01*
X45044000Y-105036000D02*
G75*
G03*
X45044000Y-105036000I-2500000J0D01*
G01*
D12*
X31044000Y-137536000D02*
G75*
G03*
X33544000Y-135036000I0J2500000D01*
G01*
X33544000Y-140036000D02*
G75*
G03*
X33544000Y-140036000I-2500000J0D01*
G01*
D11*
G36*
X34544000Y-137536000D02*
G01*
X36687542Y-139320685D01*
X36044000Y-139036000D01*
X35044000Y-139036000D01*
X34044000Y-139536000D01*
X33544000Y-140536000D01*
X33544000Y-139536000D01*
X32544000Y-138036000D01*
X31044000Y-137536000D01*
X31794000Y-137536000D01*
X32544000Y-137036000D01*
X33044000Y-136536000D01*
X33544000Y-135536000D01*
X33544000Y-135036000D01*
X34544000Y-137536000D01*
G37*
X34544000Y-137536000D02*
X36687542Y-139320685D01*
X36044000Y-139036000D01*
X35044000Y-139036000D01*
X34044000Y-139536000D01*
X33544000Y-140536000D01*
X33544000Y-139536000D01*
X32544000Y-138036000D01*
X31044000Y-137536000D01*
X31794000Y-137536000D01*
X32544000Y-137036000D01*
X33044000Y-136536000D01*
X33544000Y-135536000D01*
X33544000Y-135036000D01*
X34544000Y-137536000D01*
X122294000Y-180536000D02*
G75*
G03*
X122294000Y-180536000I-2750000J0D01*
G01*
X29294000Y-87536000D02*
G75*
G03*
X29294000Y-87536000I-2750000J0D01*
G01*
X122294000Y-87536000D02*
G75*
G03*
X122294000Y-87536000I-2750000J0D01*
G01*
X29294000Y-180536000D02*
G75*
G03*
X29294000Y-180536000I-2750000J0D01*
G01*
D12*
X87044000Y-124036000D02*
G75*
G03*
X87044000Y-124036000I-6000000J0D01*
G01*
X65044000Y-165536000D02*
G75*
G02*
X62544000Y-163036000I0J2500000D01*
G01*
X87044000Y-172036000D02*
G75*
G03*
X87044000Y-172036000I-6000000J0D01*
G01*
X117044000Y-102536000D02*
G75*
G02*
X114544000Y-100036000I0J2500000D01*
G01*
X76044000Y-99036000D02*
G75*
G03*
X76044000Y-99036000I-6000000J0D01*
G01*
X83899075Y-177321607D02*
G75*
G02*
X87043999Y-178536001I1144925J-1714393D01*
G01*
X112044000Y-172036000D02*
G75*
G03*
X112044000Y-172036000I-6000000J0D01*
G01*
X114544000Y-175536000D02*
G75*
G02*
X112044000Y-173036000I0J2500000D01*
G01*
X83899075Y-129321607D02*
G75*
G02*
X87043999Y-130536001I1144925J-1714393D01*
G01*
X96544000Y-100036000D02*
X96544000Y-99036000D01*
D11*
G36*
X114544000Y-100536000D02*
G01*
X115044000Y-101536000D01*
X115544000Y-102036000D01*
X116294000Y-102536000D01*
X117044000Y-102536000D01*
X115544000Y-103036000D01*
X114544000Y-104536000D01*
X114544000Y-105536000D01*
X114044000Y-104536000D01*
X113044000Y-104036000D01*
X112044000Y-104036000D01*
X111400458Y-104320685D01*
X113544000Y-102536000D01*
X114544000Y-100036000D01*
X114544000Y-100536000D01*
G37*
X114544000Y-100536000D02*
X115044000Y-101536000D01*
X115544000Y-102036000D01*
X116294000Y-102536000D01*
X117044000Y-102536000D01*
X115544000Y-103036000D01*
X114544000Y-104536000D01*
X114544000Y-105536000D01*
X114044000Y-104536000D01*
X113044000Y-104036000D01*
X112044000Y-104036000D01*
X111400458Y-104320685D01*
X113544000Y-102536000D01*
X114544000Y-100036000D01*
X114544000Y-100536000D01*
G36*
X112044000Y-173536000D02*
G01*
X112544000Y-174536000D01*
X113044000Y-175036000D01*
X113794000Y-175536000D01*
X114544000Y-175536000D01*
X113044000Y-176036000D01*
X112044000Y-177536000D01*
X112044000Y-178536000D01*
X111544000Y-177536000D01*
X110544000Y-177036000D01*
X109544000Y-177036000D01*
X108900458Y-177320685D01*
X111044000Y-175536000D01*
X112044000Y-173036000D01*
X112044000Y-173536000D01*
G37*
X112044000Y-173536000D02*
X112544000Y-174536000D01*
X113044000Y-175036000D01*
X113794000Y-175536000D01*
X114544000Y-175536000D01*
X113044000Y-176036000D01*
X112044000Y-177536000D01*
X112044000Y-178536000D01*
X111544000Y-177536000D01*
X110544000Y-177036000D01*
X109544000Y-177036000D01*
X108900458Y-177320685D01*
X111044000Y-175536000D01*
X112044000Y-173036000D01*
X112044000Y-173536000D01*
D12*
X76044000Y-100036000D02*
X76044000Y-99036000D01*
X112044000Y-173036000D02*
X112044000Y-172036000D01*
X117044000Y-178036000D02*
G75*
G03*
X117044000Y-178036000I-2500000J0D01*
G01*
X92044000Y-130036000D02*
G75*
G03*
X92044000Y-130036000I-2500000J0D01*
G01*
X89544000Y-127536000D02*
G75*
G02*
X87044000Y-125036000I0J2500000D01*
G01*
X114544000Y-100036000D02*
X114544000Y-99036000D01*
X111399075Y-104321607D02*
G75*
G02*
X114543999Y-105536001I1144925J-1714393D01*
G01*
X108899075Y-129321607D02*
G75*
G02*
X112043999Y-130536001I1144925J-1714393D01*
G01*
X119544000Y-105036000D02*
G75*
G03*
X119544000Y-105036000I-2500000J0D01*
G01*
X89544000Y-175536000D02*
G75*
G02*
X87044000Y-173036000I0J2500000D01*
G01*
X67544000Y-168036000D02*
G75*
G03*
X67544000Y-168036000I-2500000J0D01*
G01*
X87044000Y-173036000D02*
X87044000Y-172036000D01*
D11*
G36*
X76044000Y-100536000D02*
G01*
X76544000Y-101536000D01*
X77044000Y-102036000D01*
X77794000Y-102536000D01*
X78544000Y-102536000D01*
X77044000Y-103036000D01*
X76044000Y-104536000D01*
X76044000Y-105536000D01*
X75544000Y-104536000D01*
X74544000Y-104036000D01*
X73544000Y-104036000D01*
X72900458Y-104320685D01*
X75044000Y-102536000D01*
X76044000Y-100036000D01*
X76044000Y-100536000D01*
G37*
X76044000Y-100536000D02*
X76544000Y-101536000D01*
X77044000Y-102036000D01*
X77794000Y-102536000D01*
X78544000Y-102536000D01*
X77044000Y-103036000D01*
X76044000Y-104536000D01*
X76044000Y-105536000D01*
X75544000Y-104536000D01*
X74544000Y-104036000D01*
X73544000Y-104036000D01*
X72900458Y-104320685D01*
X75044000Y-102536000D01*
X76044000Y-100036000D01*
X76044000Y-100536000D01*
D12*
X81044000Y-105036000D02*
G75*
G03*
X81044000Y-105036000I-2500000J0D01*
G01*
X92044000Y-178036000D02*
G75*
G03*
X92044000Y-178036000I-2500000J0D01*
G01*
X87044000Y-125036000D02*
X87044000Y-124036000D01*
X96544000Y-99036000D02*
G75*
G03*
X96544000Y-99036000I-6000000J0D01*
G01*
D11*
G36*
X112044000Y-125536000D02*
G01*
X112544000Y-126536000D01*
X113044000Y-127036000D01*
X113794000Y-127536000D01*
X114544000Y-127536000D01*
X113044000Y-128036000D01*
X112044000Y-129536000D01*
X112044000Y-130536000D01*
X111544000Y-129536000D01*
X110544000Y-129036000D01*
X109544000Y-129036000D01*
X108900458Y-129320685D01*
X111044000Y-127536000D01*
X112044000Y-125036000D01*
X112044000Y-125536000D01*
G37*
X112044000Y-125536000D02*
X112544000Y-126536000D01*
X113044000Y-127036000D01*
X113794000Y-127536000D01*
X114544000Y-127536000D01*
X113044000Y-128036000D01*
X112044000Y-129536000D01*
X112044000Y-130536000D01*
X111544000Y-129536000D01*
X110544000Y-129036000D01*
X109544000Y-129036000D01*
X108900458Y-129320685D01*
X111044000Y-127536000D01*
X112044000Y-125036000D01*
X112044000Y-125536000D01*
D12*
X112044000Y-125036000D02*
X112044000Y-124036000D01*
X112044000Y-124036000D02*
G75*
G03*
X112044000Y-124036000I-6000000J0D01*
G01*
X101544000Y-105036000D02*
G75*
G03*
X101544000Y-105036000I-2500000J0D01*
G01*
X72899075Y-104321607D02*
G75*
G02*
X76043999Y-105536001I1144925J-1714393D01*
G01*
D11*
G36*
X87044000Y-125536000D02*
G01*
X87544000Y-126536000D01*
X88044000Y-127036000D01*
X88794000Y-127536000D01*
X89544000Y-127536000D01*
X88044000Y-128036000D01*
X87044000Y-129536000D01*
X87044000Y-130536000D01*
X86544000Y-129536000D01*
X85544000Y-129036000D01*
X84544000Y-129036000D01*
X83900458Y-129320685D01*
X86044000Y-127536000D01*
X87044000Y-125036000D01*
X87044000Y-125536000D01*
G37*
X87044000Y-125536000D02*
X87544000Y-126536000D01*
X88044000Y-127036000D01*
X88794000Y-127536000D01*
X89544000Y-127536000D01*
X88044000Y-128036000D01*
X87044000Y-129536000D01*
X87044000Y-130536000D01*
X86544000Y-129536000D01*
X85544000Y-129036000D01*
X84544000Y-129036000D01*
X83900458Y-129320685D01*
X86044000Y-127536000D01*
X87044000Y-125036000D01*
X87044000Y-125536000D01*
D12*
X93399075Y-104321607D02*
G75*
G02*
X96543999Y-105536001I1144925J-1714393D01*
G01*
X108899075Y-177321607D02*
G75*
G02*
X112043999Y-178536001I1144925J-1714393D01*
G01*
X99044000Y-102536000D02*
G75*
G02*
X96544000Y-100036000I0J2500000D01*
G01*
X117044000Y-130036000D02*
G75*
G03*
X117044000Y-130036000I-2500000J0D01*
G01*
X114544000Y-99036000D02*
G75*
G03*
X114544000Y-99036000I-6000000J0D01*
G01*
D11*
G36*
X62544000Y-163536000D02*
G01*
X63044000Y-164536000D01*
X63544000Y-165036000D01*
X64294000Y-165536000D01*
X65044000Y-165536000D01*
X63544000Y-166036000D01*
X62544000Y-167536000D01*
X62544000Y-168536000D01*
X62044000Y-167536000D01*
X61044000Y-167036000D01*
X60044000Y-167036000D01*
X59400458Y-167320685D01*
X61544000Y-165536000D01*
X62544000Y-163036000D01*
X62544000Y-163536000D01*
G37*
X62544000Y-163536000D02*
X63044000Y-164536000D01*
X63544000Y-165036000D01*
X64294000Y-165536000D01*
X65044000Y-165536000D01*
X63544000Y-166036000D01*
X62544000Y-167536000D01*
X62544000Y-168536000D01*
X62044000Y-167536000D01*
X61044000Y-167036000D01*
X60044000Y-167036000D01*
X59400458Y-167320685D01*
X61544000Y-165536000D01*
X62544000Y-163036000D01*
X62544000Y-163536000D01*
G36*
X62544000Y-149536000D02*
G01*
X63044000Y-150536000D01*
X63544000Y-151036000D01*
X64294000Y-151536000D01*
X65044000Y-151536000D01*
X63544000Y-152036000D01*
X62544000Y-153536000D01*
X62544000Y-154536000D01*
X62044000Y-153536000D01*
X61044000Y-153036000D01*
X60044000Y-153036000D01*
X59400458Y-153320685D01*
X61544000Y-151536000D01*
X62544000Y-149036000D01*
X62544000Y-149536000D01*
G37*
X62544000Y-149536000D02*
X63044000Y-150536000D01*
X63544000Y-151036000D01*
X64294000Y-151536000D01*
X65044000Y-151536000D01*
X63544000Y-152036000D01*
X62544000Y-153536000D01*
X62544000Y-154536000D01*
X62044000Y-153536000D01*
X61044000Y-153036000D01*
X60044000Y-153036000D01*
X59400458Y-153320685D01*
X61544000Y-151536000D01*
X62544000Y-149036000D01*
X62544000Y-149536000D01*
G36*
X96544000Y-100536000D02*
G01*
X97044000Y-101536000D01*
X97544000Y-102036000D01*
X98294000Y-102536000D01*
X99044000Y-102536000D01*
X97544000Y-103036000D01*
X96544000Y-104536000D01*
X96544000Y-105536000D01*
X96044000Y-104536000D01*
X95044000Y-104036000D01*
X94044000Y-104036000D01*
X93400458Y-104320685D01*
X95544000Y-102536000D01*
X96544000Y-100036000D01*
X96544000Y-100536000D01*
G37*
X96544000Y-100536000D02*
X97044000Y-101536000D01*
X97544000Y-102036000D01*
X98294000Y-102536000D01*
X99044000Y-102536000D01*
X97544000Y-103036000D01*
X96544000Y-104536000D01*
X96544000Y-105536000D01*
X96044000Y-104536000D01*
X95044000Y-104036000D01*
X94044000Y-104036000D01*
X93400458Y-104320685D01*
X95544000Y-102536000D01*
X96544000Y-100036000D01*
X96544000Y-100536000D01*
D12*
X67544000Y-140036000D02*
G75*
G03*
X67544000Y-140036000I-2500000J0D01*
G01*
X114544000Y-127536000D02*
G75*
G02*
X112044000Y-125036000I0J2500000D01*
G01*
X65044000Y-151536000D02*
G75*
G02*
X62544000Y-149036000I0J2500000D01*
G01*
X67544000Y-154036000D02*
G75*
G03*
X67544000Y-154036000I-2500000J0D01*
G01*
D11*
G36*
X87044000Y-173536000D02*
G01*
X87544000Y-174536000D01*
X88044000Y-175036000D01*
X88794000Y-175536000D01*
X89544000Y-175536000D01*
X88044000Y-176036000D01*
X87044000Y-177536000D01*
X87044000Y-178536000D01*
X86544000Y-177536000D01*
X85544000Y-177036000D01*
X84544000Y-177036000D01*
X83900458Y-177320685D01*
X86044000Y-175536000D01*
X87044000Y-173036000D01*
X87044000Y-173536000D01*
G37*
X87044000Y-173536000D02*
X87544000Y-174536000D01*
X88044000Y-175036000D01*
X88794000Y-175536000D01*
X89544000Y-175536000D01*
X88044000Y-176036000D01*
X87044000Y-177536000D01*
X87044000Y-178536000D01*
X86544000Y-177536000D01*
X85544000Y-177036000D01*
X84544000Y-177036000D01*
X83900458Y-177320685D01*
X86044000Y-175536000D01*
X87044000Y-173036000D01*
X87044000Y-173536000D01*
D12*
X78544000Y-102536000D02*
G75*
G02*
X76044000Y-100036000I0J2500000D01*
G01*
D10*
X31044000Y-123536000D02*
G75*
G03*
X33544000Y-121036000I0J2500000D01*
G01*
D12*
X33544000Y-154036000D02*
G75*
G03*
X33544000Y-154036000I-2500000J0D01*
G01*
X31044000Y-151536000D02*
G75*
G03*
X33544000Y-149036000I0J2500000D01*
G01*
D10*
X87044000Y-151036000D02*
G75*
G03*
X87044000Y-151036000I-6000000J0D01*
G01*
D11*
G36*
X34544000Y-165536000D02*
G01*
X36687542Y-167320685D01*
X36044000Y-167036000D01*
X35044000Y-167036000D01*
X34044000Y-167536000D01*
X33544000Y-168536000D01*
X33544000Y-167536000D01*
X32544000Y-166036000D01*
X31044000Y-165536000D01*
X31794000Y-165536000D01*
X32544000Y-165036000D01*
X33044000Y-164536000D01*
X33544000Y-163536000D01*
X33544000Y-163036000D01*
X34544000Y-165536000D01*
G37*
X34544000Y-165536000D02*
X36687542Y-167320685D01*
X36044000Y-167036000D01*
X35044000Y-167036000D01*
X34044000Y-167536000D01*
X33544000Y-168536000D01*
X33544000Y-167536000D01*
X32544000Y-166036000D01*
X31044000Y-165536000D01*
X31794000Y-165536000D01*
X32544000Y-165036000D01*
X33044000Y-164536000D01*
X33544000Y-163536000D01*
X33544000Y-163036000D01*
X34544000Y-165536000D01*
D10*
X112044000Y-151036000D02*
G75*
G03*
X112044000Y-151036000I-6000000J0D01*
G01*
D11*
G36*
X34544000Y-123536000D02*
G01*
X36687542Y-125320685D01*
X36044000Y-125036000D01*
X35044000Y-125036000D01*
X34044000Y-125536000D01*
X33544000Y-126536000D01*
X33544000Y-125536000D01*
X32544000Y-124036000D01*
X31044000Y-123536000D01*
X31794000Y-123536000D01*
X32544000Y-123036000D01*
X33044000Y-122536000D01*
X33544000Y-121536000D01*
X33544000Y-121036000D01*
X34544000Y-123536000D01*
G37*
X34544000Y-123536000D02*
X36687542Y-125320685D01*
X36044000Y-125036000D01*
X35044000Y-125036000D01*
X34044000Y-125536000D01*
X33544000Y-126536000D01*
X33544000Y-125536000D01*
X32544000Y-124036000D01*
X31044000Y-123536000D01*
X31794000Y-123536000D01*
X32544000Y-123036000D01*
X33044000Y-122536000D01*
X33544000Y-121536000D01*
X33544000Y-121036000D01*
X34544000Y-123536000D01*
D10*
X45544000Y-120036000D02*
G75*
G03*
X45544000Y-120036000I-6000000J0D01*
G01*
X33544000Y-126036000D02*
G75*
G03*
X33544000Y-126036000I-2500000J0D01*
G01*
D12*
X31044000Y-165536000D02*
G75*
G03*
X33544000Y-163036000I0J2500000D01*
G01*
X33544000Y-168036000D02*
G75*
G03*
X33544000Y-168036000I-2500000J0D01*
G01*
D11*
G36*
X34544000Y-151536000D02*
G01*
X36687542Y-153320685D01*
X36044000Y-153036000D01*
X35044000Y-153036000D01*
X34044000Y-153536000D01*
X33544000Y-154536000D01*
X33544000Y-153536000D01*
X32544000Y-152036000D01*
X31044000Y-151536000D01*
X31794000Y-151536000D01*
X32544000Y-151036000D01*
X33044000Y-150536000D01*
X33544000Y-149536000D01*
X33544000Y-149036000D01*
X34544000Y-151536000D01*
G37*
X34544000Y-151536000D02*
X36687542Y-153320685D01*
X36044000Y-153036000D01*
X35044000Y-153036000D01*
X34044000Y-153536000D01*
X33544000Y-154536000D01*
X33544000Y-153536000D01*
X32544000Y-152036000D01*
X31044000Y-151536000D01*
X31794000Y-151536000D01*
X32544000Y-151036000D01*
X33044000Y-150536000D01*
X33544000Y-149536000D01*
X33544000Y-149036000D01*
X34544000Y-151536000D01*
D10*
X63044000Y-105036000D02*
G75*
G03*
X63044000Y-105036000I-2500000J0D01*
G01*
X60544000Y-102536000D02*
G75*
G02*
X58044000Y-100036000I0J2500000D01*
G01*
X54899075Y-104321607D02*
G75*
G02*
X58043999Y-105536001I1144925J-1714393D01*
G01*
X33544000Y-121036000D02*
X33544000Y-120036000D01*
X36688925Y-125321607D02*
G75*
G03*
X33544001Y-126536001I-1144925J-1714393D01*
G01*
X58044000Y-100036000D02*
X58044000Y-99036000D01*
X58044000Y-99036000D02*
G75*
G03*
X58044000Y-99036000I-6000000J0D01*
G01*
D11*
G36*
X58044000Y-100536000D02*
G01*
X58544000Y-101536000D01*
X59044000Y-102036000D01*
X59794000Y-102536000D01*
X60544000Y-102536000D01*
X59044000Y-103036000D01*
X58044000Y-104536000D01*
X58044000Y-105536000D01*
X57544000Y-104536000D01*
X56544000Y-104036000D01*
X55544000Y-104036000D01*
X54900458Y-104320685D01*
X57044000Y-102536000D01*
X58044000Y-100036000D01*
X58044000Y-100536000D01*
G37*
X58044000Y-100536000D02*
X58544000Y-101536000D01*
X59044000Y-102036000D01*
X59794000Y-102536000D01*
X60544000Y-102536000D01*
X59044000Y-103036000D01*
X58044000Y-104536000D01*
X58044000Y-105536000D01*
X57544000Y-104536000D01*
X56544000Y-104036000D01*
X55544000Y-104036000D01*
X54900458Y-104320685D01*
X57044000Y-102536000D01*
X58044000Y-100036000D01*
X58044000Y-100536000D01*
G36*
X62544000Y-135536000D02*
G01*
X63044000Y-136536000D01*
X63544000Y-137036000D01*
X64294000Y-137536000D01*
X65044000Y-137536000D01*
X63544000Y-138036000D01*
X62544000Y-139536000D01*
X62544000Y-140536000D01*
X62044000Y-139536000D01*
X61044000Y-139036000D01*
X60044000Y-139036000D01*
X59400458Y-139320685D01*
X61544000Y-137536000D01*
X62544000Y-135036000D01*
X62544000Y-135536000D01*
G37*
X62544000Y-135536000D02*
X63044000Y-136536000D01*
X63544000Y-137036000D01*
X64294000Y-137536000D01*
X65044000Y-137536000D01*
X63544000Y-138036000D01*
X62544000Y-139536000D01*
X62544000Y-140536000D01*
X62044000Y-139536000D01*
X61044000Y-139036000D01*
X60044000Y-139036000D01*
X59400458Y-139320685D01*
X61544000Y-137536000D01*
X62544000Y-135036000D01*
X62544000Y-135536000D01*
D12*
X65044000Y-137536000D02*
G75*
G02*
X62544000Y-135036000I0J2500000D01*
G01*
X65044000Y-123536000D02*
G75*
G02*
X62544000Y-121036000I0J2500000D01*
G01*
D11*
G36*
X62544000Y-121536000D02*
G01*
X63044000Y-122536000D01*
X63544000Y-123036000D01*
X64294000Y-123536000D01*
X65044000Y-123536000D01*
X63544000Y-124036000D01*
X62544000Y-125536000D01*
X62544000Y-126536000D01*
X62044000Y-125536000D01*
X61044000Y-125036000D01*
X60044000Y-125036000D01*
X59400458Y-125320685D01*
X61544000Y-123536000D01*
X62544000Y-121036000D01*
X62544000Y-121536000D01*
G37*
X62544000Y-121536000D02*
X63044000Y-122536000D01*
X63544000Y-123036000D01*
X64294000Y-123536000D01*
X65044000Y-123536000D01*
X63544000Y-124036000D01*
X62544000Y-125536000D01*
X62544000Y-126536000D01*
X62044000Y-125536000D01*
X61044000Y-125036000D01*
X60044000Y-125036000D01*
X59400458Y-125320685D01*
X61544000Y-123536000D01*
X62544000Y-121036000D01*
X62544000Y-121536000D01*
D12*
X67544000Y-126036000D02*
G75*
G03*
X67544000Y-126036000I-2500000J0D01*
G01*
D13*
X74044000Y-138036000D02*
X69044000Y-138036000D01*
X69044000Y-183036000D02*
X93044000Y-183036000D01*
X118044000Y-138036000D02*
X114044000Y-138036000D01*
X118044000Y-183036000D02*
X118044000Y-138036000D01*
X69044000Y-138036000D02*
X69044000Y-183036000D01*
X97044000Y-138036000D02*
X94044000Y-138036000D01*
X93044000Y-183036000D02*
X93044000Y-138036000D01*
X93044000Y-138036000D02*
X88044000Y-138036000D01*
X98044000Y-138036000D02*
X97044000Y-138036000D01*
X94044000Y-138036000D02*
X94044000Y-183036000D01*
X94044000Y-183036000D02*
X118044000Y-183036000D01*
X76044000Y-131036000D02*
X78044000Y-131036000D01*
X77044000Y-158036000D02*
X77044000Y-160036000D01*
X102044000Y-160036000D02*
X101044000Y-159036000D01*
X78044000Y-131036000D02*
X77044000Y-131036000D01*
X98044000Y-88036000D02*
X83044000Y-88036000D01*
X77044000Y-133036000D02*
X76044000Y-132036000D01*
X28044000Y-112036000D02*
X28044000Y-183036000D01*
X76044000Y-179036000D02*
X78044000Y-179036000D01*
X77044000Y-181036000D02*
X76044000Y-180036000D01*
X78044000Y-158036000D02*
X77044000Y-158036000D01*
X77044000Y-160036000D02*
X76044000Y-159036000D01*
X26044000Y-110036000D02*
X81544000Y-110036000D01*
X101044000Y-158036000D02*
X103044000Y-158036000D01*
X120044000Y-88036000D02*
X108044000Y-88036000D01*
X103044000Y-179036000D02*
X102044000Y-179036000D01*
X83044000Y-110036000D02*
X120044000Y-110036000D01*
X102044000Y-179036000D02*
X102044000Y-181036000D01*
X102044000Y-158036000D02*
X102044000Y-160036000D01*
X102044000Y-160036000D02*
X103044000Y-159036000D01*
X120044000Y-110036000D02*
X120044000Y-88036000D01*
X102044000Y-181036000D02*
X101044000Y-180036000D01*
X103044000Y-158036000D02*
X102044000Y-158036000D01*
X77044000Y-160036000D02*
X78044000Y-159036000D01*
X28044000Y-183036000D02*
X68044000Y-183036000D01*
D12*
X40044000Y-99036000D02*
G75*
G03*
X40044000Y-99036000I-6000000J0D01*
G01*
D13*
X45544000Y-88036000D02*
X26044000Y-88036000D01*
X77044000Y-179036000D02*
X77044000Y-181036000D01*
X68044000Y-112036000D02*
X56044000Y-112036000D01*
X77044000Y-133036000D02*
X78044000Y-132036000D01*
X102044000Y-181036000D02*
X103044000Y-180036000D01*
X78044000Y-179036000D02*
X77044000Y-179036000D01*
X101044000Y-179036000D02*
X103044000Y-179036000D01*
X31044000Y-108036000D02*
X32044000Y-107036000D01*
X30044000Y-106036000D02*
X32044000Y-106036000D01*
X26044000Y-88036000D02*
X26044000Y-110036000D01*
X31044000Y-108036000D02*
X30044000Y-107036000D01*
X81544000Y-110036000D02*
X81544000Y-88036000D01*
X40044000Y-112036000D02*
X28044000Y-112036000D01*
X83044000Y-88036000D02*
X83044000Y-110036000D01*
X81544000Y-88036000D02*
X58044000Y-88036000D01*
X68044000Y-183036000D02*
X68044000Y-112036000D01*
X31044000Y-106036000D02*
X31044000Y-108036000D01*
X77044000Y-181036000D02*
X78044000Y-180036000D01*
X77044000Y-131036000D02*
X77044000Y-133036000D01*
X76044000Y-158036000D02*
X78044000Y-158036000D01*
D12*
X36899075Y-104321607D02*
G75*
G02*
X40043999Y-105536001I1144925J-1714393D01*
G01*
X42544000Y-102536000D02*
G75*
G02*
X40044000Y-100036000I0J2500000D01*
G01*
D11*
G36*
X40044000Y-100536000D02*
G01*
X40544000Y-101536000D01*
X41044000Y-102036000D01*
X41794000Y-102536000D01*
X42544000Y-102536000D01*
X41044000Y-103036000D01*
X40044000Y-104536000D01*
X40044000Y-105536000D01*
X39544000Y-104536000D01*
X38544000Y-104036000D01*
X37544000Y-104036000D01*
X36900458Y-104320685D01*
X39044000Y-102536000D01*
X40044000Y-100036000D01*
X40044000Y-100536000D01*
G37*
X40044000Y-100536000D02*
X40544000Y-101536000D01*
X41044000Y-102036000D01*
X41794000Y-102536000D01*
X42544000Y-102536000D01*
X41044000Y-103036000D01*
X40044000Y-104536000D01*
X40044000Y-105536000D01*
X39544000Y-104536000D01*
X38544000Y-104036000D01*
X37544000Y-104036000D01*
X36900458Y-104320685D01*
X39044000Y-102536000D01*
X40044000Y-100036000D01*
X40044000Y-100536000D01*
D12*
X40044000Y-100036000D02*
X40044000Y-99036000D01*
X45044000Y-105036000D02*
G75*
G03*
X45044000Y-105036000I-2500000J0D01*
G01*
D14*
X29186857Y-132678857D02*
X29329714Y-132536000D01*
X29615428Y-132393142D01*
X30329714Y-132393142D01*
X30615428Y-132536000D01*
X30758285Y-132678857D01*
X30901142Y-132964571D01*
X30901142Y-133250285D01*
X30758285Y-133678857D01*
X29044000Y-135393142D01*
X30901142Y-135393142D01*
X66615428Y-132393142D02*
X66044000Y-132393142D01*
X65758285Y-132536000D01*
X65615428Y-132678857D01*
X65329714Y-133107428D01*
X65186857Y-133678857D01*
X65186857Y-134821714D01*
X65329714Y-135107428D01*
X65472571Y-135250285D01*
X65758285Y-135393142D01*
X66329714Y-135393142D01*
X66615428Y-135250285D01*
X66758285Y-135107428D01*
X66901142Y-134821714D01*
X66901142Y-134107428D01*
X66758285Y-133821714D01*
X66615428Y-133678857D01*
X66329714Y-133536000D01*
X65758285Y-133536000D01*
X65472571Y-133678857D01*
X65329714Y-133821714D01*
X65186857Y-134107428D01*
X30901142Y-121393142D02*
X29186857Y-121393142D01*
X30044000Y-121393142D02*
X30044000Y-118393142D01*
X29758285Y-118821714D01*
X29472571Y-119107428D01*
X29186857Y-119250285D01*
X102948761Y-116940761D02*
X102948761Y-114940761D01*
X103710666Y-114940761D01*
X103901142Y-115036000D01*
X103996380Y-115131238D01*
X104091619Y-115321714D01*
X104091619Y-115607428D01*
X103996380Y-115797904D01*
X103901142Y-115893142D01*
X103710666Y-115988380D01*
X102948761Y-115988380D01*
X104948761Y-116940761D02*
X104948761Y-115607428D01*
X104948761Y-115988380D02*
X105044000Y-115797904D01*
X105139238Y-115702666D01*
X105329714Y-115607428D01*
X105520190Y-115607428D01*
X106186857Y-116940761D02*
X106186857Y-115607428D01*
X106186857Y-114940761D02*
X106091619Y-115036000D01*
X106186857Y-115131238D01*
X106282095Y-115036000D01*
X106186857Y-114940761D01*
X106186857Y-115131238D01*
X107139238Y-115607428D02*
X107139238Y-116940761D01*
X107139238Y-115797904D02*
X107234476Y-115702666D01*
X107424952Y-115607428D01*
X107710666Y-115607428D01*
X107901142Y-115702666D01*
X107996380Y-115893142D01*
X107996380Y-116940761D01*
X108663047Y-115607428D02*
X109424952Y-115607428D01*
X108948761Y-114940761D02*
X108948761Y-116655047D01*
X109044000Y-116845523D01*
X109234476Y-116940761D01*
X109424952Y-116940761D01*
X30615428Y-161393142D02*
X30615428Y-163393142D01*
X29901142Y-160250285D02*
X29186857Y-162393142D01*
X31044000Y-162393142D01*
X29044000Y-146393142D02*
X30901142Y-146393142D01*
X29901142Y-147536000D01*
X30329714Y-147536000D01*
X30615428Y-147678857D01*
X30758285Y-147821714D01*
X30901142Y-148107428D01*
X30901142Y-148821714D01*
X30758285Y-149107428D01*
X30615428Y-149250285D01*
X30329714Y-149393142D01*
X29472571Y-149393142D01*
X29186857Y-149250285D01*
X29044000Y-149107428D01*
X47091619Y-86940761D02*
X48234476Y-86940761D01*
X47663047Y-88940761D02*
X47663047Y-86940761D01*
X48901142Y-88940761D02*
X48901142Y-87607428D01*
X48901142Y-87988380D02*
X48996380Y-87797904D01*
X49091619Y-87702666D01*
X49282095Y-87607428D01*
X49472571Y-87607428D01*
X50139238Y-88940761D02*
X50139238Y-87607428D01*
X50139238Y-86940761D02*
X50044000Y-87036000D01*
X50139238Y-87131238D01*
X50234476Y-87036000D01*
X50139238Y-86940761D01*
X50139238Y-87131238D01*
X51948761Y-87607428D02*
X51948761Y-89226476D01*
X51853523Y-89416952D01*
X51758285Y-89512190D01*
X51567809Y-89607428D01*
X51282095Y-89607428D01*
X51091619Y-89512190D01*
X51948761Y-88845523D02*
X51758285Y-88940761D01*
X51377333Y-88940761D01*
X51186857Y-88845523D01*
X51091619Y-88750285D01*
X50996380Y-88559809D01*
X50996380Y-87988380D01*
X51091619Y-87797904D01*
X51186857Y-87702666D01*
X51377333Y-87607428D01*
X51758285Y-87607428D01*
X51948761Y-87702666D01*
X53758285Y-87607428D02*
X53758285Y-89226476D01*
X53663047Y-89416952D01*
X53567809Y-89512190D01*
X53377333Y-89607428D01*
X53091619Y-89607428D01*
X52901142Y-89512190D01*
X53758285Y-88845523D02*
X53567809Y-88940761D01*
X53186857Y-88940761D01*
X52996380Y-88845523D01*
X52901142Y-88750285D01*
X52805904Y-88559809D01*
X52805904Y-87988380D01*
X52901142Y-87797904D01*
X52996380Y-87702666D01*
X53186857Y-87607428D01*
X53567809Y-87607428D01*
X53758285Y-87702666D01*
X55472571Y-88845523D02*
X55282095Y-88940761D01*
X54901142Y-88940761D01*
X54710666Y-88845523D01*
X54615428Y-88655047D01*
X54615428Y-87893142D01*
X54710666Y-87702666D01*
X54901142Y-87607428D01*
X55282095Y-87607428D01*
X55472571Y-87702666D01*
X55567809Y-87893142D01*
X55567809Y-88083619D01*
X54615428Y-88274095D01*
X56424952Y-88940761D02*
X56424952Y-87607428D01*
X56424952Y-87988380D02*
X56520190Y-87797904D01*
X56615428Y-87702666D01*
X56805904Y-87607428D01*
X56996380Y-87607428D01*
X98853523Y-138940761D02*
X98853523Y-136940761D01*
X98853523Y-137893142D02*
X99996380Y-137893142D01*
X99996380Y-138940761D02*
X99996380Y-136940761D01*
X101234476Y-138940761D02*
X101044000Y-138845523D01*
X100948761Y-138750285D01*
X100853523Y-138559809D01*
X100853523Y-137988380D01*
X100948761Y-137797904D01*
X101044000Y-137702666D01*
X101234476Y-137607428D01*
X101520190Y-137607428D01*
X101710666Y-137702666D01*
X101805904Y-137797904D01*
X101901142Y-137988380D01*
X101901142Y-138559809D01*
X101805904Y-138750285D01*
X101710666Y-138845523D01*
X101520190Y-138940761D01*
X101234476Y-138940761D01*
X102758285Y-138940761D02*
X102758285Y-137607428D01*
X102758285Y-137988380D02*
X102853523Y-137797904D01*
X102948761Y-137702666D01*
X103139238Y-137607428D01*
X103329714Y-137607428D01*
X103996380Y-138940761D02*
X103996380Y-137607428D01*
X103996380Y-136940761D02*
X103901142Y-137036000D01*
X103996380Y-137131238D01*
X104091619Y-137036000D01*
X103996380Y-136940761D01*
X103996380Y-137131238D01*
X104758285Y-137607428D02*
X105805904Y-137607428D01*
X104758285Y-138940761D01*
X105805904Y-138940761D01*
X106853523Y-138940761D02*
X106663047Y-138845523D01*
X106567809Y-138750285D01*
X106472571Y-138559809D01*
X106472571Y-137988380D01*
X106567809Y-137797904D01*
X106663047Y-137702666D01*
X106853523Y-137607428D01*
X107139238Y-137607428D01*
X107329714Y-137702666D01*
X107424952Y-137797904D01*
X107520190Y-137988380D01*
X107520190Y-138559809D01*
X107424952Y-138750285D01*
X107329714Y-138845523D01*
X107139238Y-138940761D01*
X106853523Y-138940761D01*
X108377333Y-137607428D02*
X108377333Y-138940761D01*
X108377333Y-137797904D02*
X108472571Y-137702666D01*
X108663047Y-137607428D01*
X108948761Y-137607428D01*
X109139238Y-137702666D01*
X109234476Y-137893142D01*
X109234476Y-138940761D01*
X109901142Y-137607428D02*
X110663047Y-137607428D01*
X110186857Y-136940761D02*
X110186857Y-138655047D01*
X110282095Y-138845523D01*
X110472571Y-138940761D01*
X110663047Y-138940761D01*
X112186857Y-138940761D02*
X112186857Y-137893142D01*
X112091619Y-137702666D01*
X111901142Y-137607428D01*
X111520190Y-137607428D01*
X111329714Y-137702666D01*
X112186857Y-138845523D02*
X111996380Y-138940761D01*
X111520190Y-138940761D01*
X111329714Y-138845523D01*
X111234476Y-138655047D01*
X111234476Y-138464571D01*
X111329714Y-138274095D01*
X111520190Y-138178857D01*
X111996380Y-138178857D01*
X112186857Y-138083619D01*
X113424952Y-138940761D02*
X113234476Y-138845523D01*
X113139238Y-138655047D01*
X113139238Y-136940761D01*
X102972571Y-91940761D02*
X102305904Y-90988380D01*
X101829714Y-91940761D02*
X101829714Y-89940761D01*
X102591619Y-89940761D01*
X102782095Y-90036000D01*
X102877333Y-90131238D01*
X102972571Y-90321714D01*
X102972571Y-90607428D01*
X102877333Y-90797904D01*
X102782095Y-90893142D01*
X102591619Y-90988380D01*
X101829714Y-90988380D01*
X104686857Y-90607428D02*
X104686857Y-91940761D01*
X103829714Y-90607428D02*
X103829714Y-91655047D01*
X103924952Y-91845523D01*
X104115428Y-91940761D01*
X104401142Y-91940761D01*
X104591619Y-91845523D01*
X104686857Y-91750285D01*
X105639238Y-90607428D02*
X105639238Y-91940761D01*
X105639238Y-90797904D02*
X105734476Y-90702666D01*
X105924952Y-90607428D01*
X106210666Y-90607428D01*
X106401142Y-90702666D01*
X106496380Y-90893142D01*
X106496380Y-91940761D01*
X108877333Y-89845523D02*
X107163047Y-92416952D01*
X109448761Y-91845523D02*
X109734476Y-91940761D01*
X110210666Y-91940761D01*
X110401142Y-91845523D01*
X110496380Y-91750285D01*
X110591619Y-91559809D01*
X110591619Y-91369333D01*
X110496380Y-91178857D01*
X110401142Y-91083619D01*
X110210666Y-90988380D01*
X109829714Y-90893142D01*
X109639238Y-90797904D01*
X109544000Y-90702666D01*
X109448761Y-90512190D01*
X109448761Y-90321714D01*
X109544000Y-90131238D01*
X109639238Y-90036000D01*
X109829714Y-89940761D01*
X110305904Y-89940761D01*
X110591619Y-90036000D01*
X111163047Y-90607428D02*
X111924952Y-90607428D01*
X111448761Y-89940761D02*
X111448761Y-91655047D01*
X111544000Y-91845523D01*
X111734476Y-91940761D01*
X111924952Y-91940761D01*
X112877333Y-91940761D02*
X112686857Y-91845523D01*
X112591619Y-91750285D01*
X112496380Y-91559809D01*
X112496380Y-90988380D01*
X112591619Y-90797904D01*
X112686857Y-90702666D01*
X112877333Y-90607428D01*
X113163047Y-90607428D01*
X113353523Y-90702666D01*
X113448761Y-90797904D01*
X113544000Y-90988380D01*
X113544000Y-91559809D01*
X113448761Y-91750285D01*
X113353523Y-91845523D01*
X113163047Y-91940761D01*
X112877333Y-91940761D01*
X114401142Y-90607428D02*
X114401142Y-92607428D01*
X114401142Y-90702666D02*
X114591619Y-90607428D01*
X114972571Y-90607428D01*
X115163047Y-90702666D01*
X115258285Y-90797904D01*
X115353523Y-90988380D01*
X115353523Y-91559809D01*
X115258285Y-91750285D01*
X115163047Y-91845523D01*
X114972571Y-91940761D01*
X114591619Y-91940761D01*
X114401142Y-91845523D01*
X42853523Y-112750285D02*
X42758285Y-112845523D01*
X42472571Y-112940761D01*
X42282095Y-112940761D01*
X41996380Y-112845523D01*
X41805904Y-112655047D01*
X41710666Y-112464571D01*
X41615428Y-112083619D01*
X41615428Y-111797904D01*
X41710666Y-111416952D01*
X41805904Y-111226476D01*
X41996380Y-111036000D01*
X42282095Y-110940761D01*
X42472571Y-110940761D01*
X42758285Y-111036000D01*
X42853523Y-111131238D01*
X43710666Y-112940761D02*
X43710666Y-110940761D01*
X44567809Y-112940761D02*
X44567809Y-111893142D01*
X44472571Y-111702666D01*
X44282095Y-111607428D01*
X43996380Y-111607428D01*
X43805904Y-111702666D01*
X43710666Y-111797904D01*
X46377333Y-112940761D02*
X46377333Y-111893142D01*
X46282095Y-111702666D01*
X46091619Y-111607428D01*
X45710666Y-111607428D01*
X45520190Y-111702666D01*
X46377333Y-112845523D02*
X46186857Y-112940761D01*
X45710666Y-112940761D01*
X45520190Y-112845523D01*
X45424952Y-112655047D01*
X45424952Y-112464571D01*
X45520190Y-112274095D01*
X45710666Y-112178857D01*
X46186857Y-112178857D01*
X46377333Y-112083619D01*
X47329714Y-111607428D02*
X47329714Y-112940761D01*
X47329714Y-111797904D02*
X47424952Y-111702666D01*
X47615428Y-111607428D01*
X47901142Y-111607428D01*
X48091619Y-111702666D01*
X48186857Y-111893142D01*
X48186857Y-112940761D01*
X49139238Y-111607428D02*
X49139238Y-112940761D01*
X49139238Y-111797904D02*
X49234476Y-111702666D01*
X49424952Y-111607428D01*
X49710666Y-111607428D01*
X49901142Y-111702666D01*
X49996380Y-111893142D01*
X49996380Y-112940761D01*
X51710666Y-112845523D02*
X51520190Y-112940761D01*
X51139238Y-112940761D01*
X50948761Y-112845523D01*
X50853523Y-112655047D01*
X50853523Y-111893142D01*
X50948761Y-111702666D01*
X51139238Y-111607428D01*
X51520190Y-111607428D01*
X51710666Y-111702666D01*
X51805904Y-111893142D01*
X51805904Y-112083619D01*
X50853523Y-112274095D01*
X52948761Y-112940761D02*
X52758285Y-112845523D01*
X52663047Y-112655047D01*
X52663047Y-110940761D01*
X53615428Y-112845523D02*
X53805904Y-112940761D01*
X54186857Y-112940761D01*
X54377333Y-112845523D01*
X54472571Y-112655047D01*
X54472571Y-112559809D01*
X54377333Y-112369333D01*
X54186857Y-112274095D01*
X53901142Y-112274095D01*
X53710666Y-112178857D01*
X53615428Y-111988380D01*
X53615428Y-111893142D01*
X53710666Y-111702666D01*
X53901142Y-111607428D01*
X54186857Y-111607428D01*
X54377333Y-111702666D01*
X77329714Y-164845523D02*
X77615428Y-164940761D01*
X78091619Y-164940761D01*
X78282095Y-164845523D01*
X78377333Y-164750285D01*
X78472571Y-164559809D01*
X78472571Y-164369333D01*
X78377333Y-164178857D01*
X78282095Y-164083619D01*
X78091619Y-163988380D01*
X77710666Y-163893142D01*
X77520190Y-163797904D01*
X77424952Y-163702666D01*
X77329714Y-163512190D01*
X77329714Y-163321714D01*
X77424952Y-163131238D01*
X77520190Y-163036000D01*
X77710666Y-162940761D01*
X78186857Y-162940761D01*
X78472571Y-163036000D01*
X80186857Y-164845523D02*
X79996380Y-164940761D01*
X79615428Y-164940761D01*
X79424952Y-164845523D01*
X79329714Y-164750285D01*
X79234476Y-164559809D01*
X79234476Y-163988380D01*
X79329714Y-163797904D01*
X79424952Y-163702666D01*
X79615428Y-163607428D01*
X79996380Y-163607428D01*
X80186857Y-163702666D01*
X81901142Y-164940761D02*
X81901142Y-163893142D01*
X81805904Y-163702666D01*
X81615428Y-163607428D01*
X81234476Y-163607428D01*
X81044000Y-163702666D01*
X81901142Y-164845523D02*
X81710666Y-164940761D01*
X81234476Y-164940761D01*
X81044000Y-164845523D01*
X80948761Y-164655047D01*
X80948761Y-164464571D01*
X81044000Y-164274095D01*
X81234476Y-164178857D01*
X81710666Y-164178857D01*
X81901142Y-164083619D01*
X83139238Y-164940761D02*
X82948761Y-164845523D01*
X82853523Y-164655047D01*
X82853523Y-162940761D01*
X84663047Y-164845523D02*
X84472571Y-164940761D01*
X84091619Y-164940761D01*
X83901142Y-164845523D01*
X83805904Y-164655047D01*
X83805904Y-163893142D01*
X83901142Y-163702666D01*
X84091619Y-163607428D01*
X84472571Y-163607428D01*
X84663047Y-163702666D01*
X84758285Y-163893142D01*
X84758285Y-164083619D01*
X83805904Y-164274095D01*
X75567809Y-136940761D02*
X76234476Y-138940761D01*
X76901142Y-136940761D01*
X78329714Y-138845523D02*
X78139238Y-138940761D01*
X77758285Y-138940761D01*
X77567809Y-138845523D01*
X77472571Y-138655047D01*
X77472571Y-137893142D01*
X77567809Y-137702666D01*
X77758285Y-137607428D01*
X78139238Y-137607428D01*
X78329714Y-137702666D01*
X78424952Y-137893142D01*
X78424952Y-138083619D01*
X77472571Y-138274095D01*
X79282095Y-138940761D02*
X79282095Y-137607428D01*
X79282095Y-137988380D02*
X79377333Y-137797904D01*
X79472571Y-137702666D01*
X79663047Y-137607428D01*
X79853523Y-137607428D01*
X80234476Y-137607428D02*
X80996380Y-137607428D01*
X80520190Y-136940761D02*
X80520190Y-138655047D01*
X80615428Y-138845523D01*
X80805904Y-138940761D01*
X80996380Y-138940761D01*
X81663047Y-138940761D02*
X81663047Y-137607428D01*
X81663047Y-136940761D02*
X81567809Y-137036000D01*
X81663047Y-137131238D01*
X81758285Y-137036000D01*
X81663047Y-136940761D01*
X81663047Y-137131238D01*
X83472571Y-138845523D02*
X83282095Y-138940761D01*
X82901142Y-138940761D01*
X82710666Y-138845523D01*
X82615428Y-138750285D01*
X82520190Y-138559809D01*
X82520190Y-137988380D01*
X82615428Y-137797904D01*
X82710666Y-137702666D01*
X82901142Y-137607428D01*
X83282095Y-137607428D01*
X83472571Y-137702666D01*
X85186857Y-138940761D02*
X85186857Y-137893142D01*
X85091619Y-137702666D01*
X84901142Y-137607428D01*
X84520190Y-137607428D01*
X84329714Y-137702666D01*
X85186857Y-138845523D02*
X84996380Y-138940761D01*
X84520190Y-138940761D01*
X84329714Y-138845523D01*
X84234476Y-138655047D01*
X84234476Y-138464571D01*
X84329714Y-138274095D01*
X84520190Y-138178857D01*
X84996380Y-138178857D01*
X85186857Y-138083619D01*
X86424952Y-138940761D02*
X86234476Y-138845523D01*
X86139238Y-138655047D01*
X86139238Y-136940761D01*
D15*
X104186857Y-179214571D02*
X105186857Y-179214571D01*
X104186857Y-180714571D01*
X105186857Y-180714571D01*
X105972571Y-180714571D02*
X105829714Y-180643142D01*
X105758285Y-180571714D01*
X105686857Y-180428857D01*
X105686857Y-180000285D01*
X105758285Y-179857428D01*
X105829714Y-179786000D01*
X105972571Y-179714571D01*
X106186857Y-179714571D01*
X106329714Y-179786000D01*
X106401142Y-179857428D01*
X106472571Y-180000285D01*
X106472571Y-180428857D01*
X106401142Y-180571714D01*
X106329714Y-180643142D01*
X106186857Y-180714571D01*
X105972571Y-180714571D01*
X107329714Y-180714571D02*
X107186857Y-180643142D01*
X107115428Y-180571714D01*
X107044000Y-180428857D01*
X107044000Y-180000285D01*
X107115428Y-179857428D01*
X107186857Y-179786000D01*
X107329714Y-179714571D01*
X107544000Y-179714571D01*
X107686857Y-179786000D01*
X107758285Y-179857428D01*
X107829714Y-180000285D01*
X107829714Y-180428857D01*
X107758285Y-180571714D01*
X107686857Y-180643142D01*
X107544000Y-180714571D01*
X107329714Y-180714571D01*
X108472571Y-180714571D02*
X108472571Y-179714571D01*
X108472571Y-179857428D02*
X108544000Y-179786000D01*
X108686857Y-179714571D01*
X108901142Y-179714571D01*
X109044000Y-179786000D01*
X109115428Y-179928857D01*
X109115428Y-180714571D01*
X109115428Y-179928857D02*
X109186857Y-179786000D01*
X109329714Y-179714571D01*
X109544000Y-179714571D01*
X109686857Y-179786000D01*
X109758285Y-179928857D01*
X109758285Y-180714571D01*
X79186857Y-179214571D02*
X80186857Y-179214571D01*
X79186857Y-180714571D01*
X80186857Y-180714571D01*
X80972571Y-180714571D02*
X80829714Y-180643142D01*
X80758285Y-180571714D01*
X80686857Y-180428857D01*
X80686857Y-180000285D01*
X80758285Y-179857428D01*
X80829714Y-179786000D01*
X80972571Y-179714571D01*
X81186857Y-179714571D01*
X81329714Y-179786000D01*
X81401142Y-179857428D01*
X81472571Y-180000285D01*
X81472571Y-180428857D01*
X81401142Y-180571714D01*
X81329714Y-180643142D01*
X81186857Y-180714571D01*
X80972571Y-180714571D01*
X82329714Y-180714571D02*
X82186857Y-180643142D01*
X82115428Y-180571714D01*
X82044000Y-180428857D01*
X82044000Y-180000285D01*
X82115428Y-179857428D01*
X82186857Y-179786000D01*
X82329714Y-179714571D01*
X82544000Y-179714571D01*
X82686857Y-179786000D01*
X82758285Y-179857428D01*
X82829714Y-180000285D01*
X82829714Y-180428857D01*
X82758285Y-180571714D01*
X82686857Y-180643142D01*
X82544000Y-180714571D01*
X82329714Y-180714571D01*
X83472571Y-180714571D02*
X83472571Y-179714571D01*
X83472571Y-179857428D02*
X83544000Y-179786000D01*
X83686857Y-179714571D01*
X83901142Y-179714571D01*
X84044000Y-179786000D01*
X84115428Y-179928857D01*
X84115428Y-180714571D01*
X84115428Y-179928857D02*
X84186857Y-179786000D01*
X84329714Y-179714571D01*
X84544000Y-179714571D01*
X84686857Y-179786000D01*
X84758285Y-179928857D01*
X84758285Y-180714571D01*
D14*
X31663047Y-91940761D02*
X30710666Y-91940761D01*
X30710666Y-89940761D01*
X33091619Y-91845523D02*
X32901142Y-91940761D01*
X32520190Y-91940761D01*
X32329714Y-91845523D01*
X32234476Y-91655047D01*
X32234476Y-90893142D01*
X32329714Y-90702666D01*
X32520190Y-90607428D01*
X32901142Y-90607428D01*
X33091619Y-90702666D01*
X33186857Y-90893142D01*
X33186857Y-91083619D01*
X32234476Y-91274095D01*
X33853523Y-90607428D02*
X34329714Y-91940761D01*
X34805904Y-90607428D01*
X36329714Y-91845523D02*
X36139238Y-91940761D01*
X35758285Y-91940761D01*
X35567809Y-91845523D01*
X35472571Y-91655047D01*
X35472571Y-90893142D01*
X35567809Y-90702666D01*
X35758285Y-90607428D01*
X36139238Y-90607428D01*
X36329714Y-90702666D01*
X36424952Y-90893142D01*
X36424952Y-91083619D01*
X35472571Y-91274095D01*
X37567809Y-91940761D02*
X37377333Y-91845523D01*
X37282095Y-91655047D01*
X37282095Y-89940761D01*
X75472571Y-143940761D02*
X75472571Y-141940761D01*
X76234476Y-141940761D01*
X76424952Y-142036000D01*
X76520190Y-142131238D01*
X76615428Y-142321714D01*
X76615428Y-142607428D01*
X76520190Y-142797904D01*
X76424952Y-142893142D01*
X76234476Y-142988380D01*
X75472571Y-142988380D01*
X77758285Y-143940761D02*
X77567809Y-143845523D01*
X77472571Y-143750285D01*
X77377333Y-143559809D01*
X77377333Y-142988380D01*
X77472571Y-142797904D01*
X77567809Y-142702666D01*
X77758285Y-142607428D01*
X78044000Y-142607428D01*
X78234476Y-142702666D01*
X78329714Y-142797904D01*
X78424952Y-142988380D01*
X78424952Y-143559809D01*
X78329714Y-143750285D01*
X78234476Y-143845523D01*
X78044000Y-143940761D01*
X77758285Y-143940761D01*
X79186857Y-143845523D02*
X79377333Y-143940761D01*
X79758285Y-143940761D01*
X79948761Y-143845523D01*
X80044000Y-143655047D01*
X80044000Y-143559809D01*
X79948761Y-143369333D01*
X79758285Y-143274095D01*
X79472571Y-143274095D01*
X79282095Y-143178857D01*
X79186857Y-142988380D01*
X79186857Y-142893142D01*
X79282095Y-142702666D01*
X79472571Y-142607428D01*
X79758285Y-142607428D01*
X79948761Y-142702666D01*
X80901142Y-143940761D02*
X80901142Y-142607428D01*
X80901142Y-141940761D02*
X80805904Y-142036000D01*
X80901142Y-142131238D01*
X80996380Y-142036000D01*
X80901142Y-141940761D01*
X80901142Y-142131238D01*
X81567809Y-142607428D02*
X82329714Y-142607428D01*
X81853523Y-141940761D02*
X81853523Y-143655047D01*
X81948761Y-143845523D01*
X82139238Y-143940761D01*
X82329714Y-143940761D01*
X82996380Y-143940761D02*
X82996380Y-142607428D01*
X82996380Y-141940761D02*
X82901142Y-142036000D01*
X82996380Y-142131238D01*
X83091619Y-142036000D01*
X82996380Y-141940761D01*
X82996380Y-142131238D01*
X84234476Y-143940761D02*
X84044000Y-143845523D01*
X83948761Y-143750285D01*
X83853523Y-143559809D01*
X83853523Y-142988380D01*
X83948761Y-142797904D01*
X84044000Y-142702666D01*
X84234476Y-142607428D01*
X84520190Y-142607428D01*
X84710666Y-142702666D01*
X84805904Y-142797904D01*
X84901142Y-142988380D01*
X84901142Y-143559809D01*
X84805904Y-143750285D01*
X84710666Y-143845523D01*
X84520190Y-143940761D01*
X84234476Y-143940761D01*
X85758285Y-142607428D02*
X85758285Y-143940761D01*
X85758285Y-142797904D02*
X85853523Y-142702666D01*
X86044000Y-142607428D01*
X86329714Y-142607428D01*
X86520190Y-142702666D01*
X86615428Y-142893142D01*
X86615428Y-143940761D01*
X87686857Y-91369333D02*
X88639238Y-91369333D01*
X87496380Y-91940761D02*
X88163047Y-89940761D01*
X88829714Y-91940761D01*
X90353523Y-90607428D02*
X90353523Y-91940761D01*
X89496380Y-90607428D02*
X89496380Y-91655047D01*
X89591619Y-91845523D01*
X89782095Y-91940761D01*
X90067809Y-91940761D01*
X90258285Y-91845523D01*
X90353523Y-91750285D01*
X91020190Y-90607428D02*
X91782095Y-90607428D01*
X91305904Y-89940761D02*
X91305904Y-91655047D01*
X91401142Y-91845523D01*
X91591619Y-91940761D01*
X91782095Y-91940761D01*
X92734476Y-91940761D02*
X92544000Y-91845523D01*
X92448761Y-91750285D01*
X92353523Y-91559809D01*
X92353523Y-90988380D01*
X92448761Y-90797904D01*
X92544000Y-90702666D01*
X92734476Y-90607428D01*
X93020190Y-90607428D01*
X93210666Y-90702666D01*
X93305904Y-90797904D01*
X93401142Y-90988380D01*
X93401142Y-91559809D01*
X93305904Y-91750285D01*
X93210666Y-91845523D01*
X93020190Y-91940761D01*
X92734476Y-91940761D01*
D15*
X33758285Y-106214571D02*
X34758285Y-106214571D01*
X33758285Y-107714571D01*
X34758285Y-107714571D01*
X35901142Y-107643142D02*
X35758285Y-107714571D01*
X35472571Y-107714571D01*
X35329714Y-107643142D01*
X35258285Y-107500285D01*
X35258285Y-106928857D01*
X35329714Y-106786000D01*
X35472571Y-106714571D01*
X35758285Y-106714571D01*
X35901142Y-106786000D01*
X35972571Y-106928857D01*
X35972571Y-107071714D01*
X35258285Y-107214571D01*
X36615428Y-107714571D02*
X36615428Y-106714571D01*
X36615428Y-107000285D02*
X36686857Y-106857428D01*
X36758285Y-106786000D01*
X36901142Y-106714571D01*
X37044000Y-106714571D01*
X37758285Y-107714571D02*
X37615428Y-107643142D01*
X37544000Y-107571714D01*
X37472571Y-107428857D01*
X37472571Y-107000285D01*
X37544000Y-106857428D01*
X37615428Y-106786000D01*
X37758285Y-106714571D01*
X37972571Y-106714571D01*
X38115428Y-106786000D01*
X38186857Y-106857428D01*
X38258285Y-107000285D01*
X38258285Y-107428857D01*
X38186857Y-107571714D01*
X38115428Y-107643142D01*
X37972571Y-107714571D01*
X37758285Y-107714571D01*
D14*
X66710666Y-91940761D02*
X66710666Y-89940761D01*
X67377333Y-91369333D01*
X68044000Y-89940761D01*
X68044000Y-91940761D01*
X69282095Y-91940761D02*
X69091619Y-91845523D01*
X68996380Y-91750285D01*
X68901142Y-91559809D01*
X68901142Y-90988380D01*
X68996380Y-90797904D01*
X69091619Y-90702666D01*
X69282095Y-90607428D01*
X69567809Y-90607428D01*
X69758285Y-90702666D01*
X69853523Y-90797904D01*
X69948761Y-90988380D01*
X69948761Y-91559809D01*
X69853523Y-91750285D01*
X69758285Y-91845523D01*
X69567809Y-91940761D01*
X69282095Y-91940761D01*
X71663047Y-91940761D02*
X71663047Y-89940761D01*
X71663047Y-91845523D02*
X71472571Y-91940761D01*
X71091619Y-91940761D01*
X70901142Y-91845523D01*
X70805904Y-91750285D01*
X70710666Y-91559809D01*
X70710666Y-90988380D01*
X70805904Y-90797904D01*
X70901142Y-90702666D01*
X71091619Y-90607428D01*
X71472571Y-90607428D01*
X71663047Y-90702666D01*
X73377333Y-91845523D02*
X73186857Y-91940761D01*
X72805904Y-91940761D01*
X72615428Y-91845523D01*
X72520190Y-91655047D01*
X72520190Y-90893142D01*
X72615428Y-90702666D01*
X72805904Y-90607428D01*
X73186857Y-90607428D01*
X73377333Y-90702666D01*
X73472571Y-90893142D01*
X73472571Y-91083619D01*
X72520190Y-91274095D01*
X65758285Y-161678857D02*
X65472571Y-161536000D01*
X65329714Y-161393142D01*
X65186857Y-161107428D01*
X65186857Y-160964571D01*
X65329714Y-160678857D01*
X65472571Y-160536000D01*
X65758285Y-160393142D01*
X66329714Y-160393142D01*
X66615428Y-160536000D01*
X66758285Y-160678857D01*
X66901142Y-160964571D01*
X66901142Y-161107428D01*
X66758285Y-161393142D01*
X66615428Y-161536000D01*
X66329714Y-161678857D01*
X65758285Y-161678857D01*
X65472571Y-161821714D01*
X65329714Y-161964571D01*
X65186857Y-162250285D01*
X65186857Y-162821714D01*
X65329714Y-163107428D01*
X65472571Y-163250285D01*
X65758285Y-163393142D01*
X66329714Y-163393142D01*
X66615428Y-163250285D01*
X66758285Y-163107428D01*
X66901142Y-162821714D01*
X66901142Y-162250285D01*
X66758285Y-161964571D01*
X66615428Y-161821714D01*
X66329714Y-161678857D01*
X66758285Y-118393142D02*
X65329714Y-118393142D01*
X65186857Y-119821714D01*
X65329714Y-119678857D01*
X65615428Y-119536000D01*
X66329714Y-119536000D01*
X66615428Y-119678857D01*
X66758285Y-119821714D01*
X66901142Y-120107428D01*
X66901142Y-120821714D01*
X66758285Y-121107428D01*
X66615428Y-121250285D01*
X66329714Y-121393142D01*
X65615428Y-121393142D01*
X65329714Y-121250285D01*
X65186857Y-121107428D01*
X65044000Y-146393142D02*
X67044000Y-146393142D01*
X65758285Y-149393142D01*
D15*
X79544000Y-132714571D02*
X79544000Y-131214571D01*
X80044000Y-132286000D01*
X80544000Y-131214571D01*
X80544000Y-132714571D01*
X81472571Y-132714571D02*
X81329714Y-132643142D01*
X81258285Y-132571714D01*
X81186857Y-132428857D01*
X81186857Y-132000285D01*
X81258285Y-131857428D01*
X81329714Y-131786000D01*
X81472571Y-131714571D01*
X81686857Y-131714571D01*
X81829714Y-131786000D01*
X81901142Y-131857428D01*
X81972571Y-132000285D01*
X81972571Y-132428857D01*
X81901142Y-132571714D01*
X81829714Y-132643142D01*
X81686857Y-132714571D01*
X81472571Y-132714571D01*
X83258285Y-132714571D02*
X83258285Y-131214571D01*
X83258285Y-132643142D02*
X83115428Y-132714571D01*
X82829714Y-132714571D01*
X82686857Y-132643142D01*
X82615428Y-132571714D01*
X82544000Y-132428857D01*
X82544000Y-132000285D01*
X82615428Y-131857428D01*
X82686857Y-131786000D01*
X82829714Y-131714571D01*
X83115428Y-131714571D01*
X83258285Y-131786000D01*
X84544000Y-132643142D02*
X84401142Y-132714571D01*
X84115428Y-132714571D01*
X83972571Y-132643142D01*
X83901142Y-132500285D01*
X83901142Y-131928857D01*
X83972571Y-131786000D01*
X84115428Y-131714571D01*
X84401142Y-131714571D01*
X84544000Y-131786000D01*
X84615428Y-131928857D01*
X84615428Y-132071714D01*
X83901142Y-132214571D01*
X79758285Y-158214571D02*
X80758285Y-158214571D01*
X79758285Y-159714571D01*
X80758285Y-159714571D01*
X81901142Y-159643142D02*
X81758285Y-159714571D01*
X81472571Y-159714571D01*
X81329714Y-159643142D01*
X81258285Y-159500285D01*
X81258285Y-158928857D01*
X81329714Y-158786000D01*
X81472571Y-158714571D01*
X81758285Y-158714571D01*
X81901142Y-158786000D01*
X81972571Y-158928857D01*
X81972571Y-159071714D01*
X81258285Y-159214571D01*
X82615428Y-159714571D02*
X82615428Y-158714571D01*
X82615428Y-159000285D02*
X82686857Y-158857428D01*
X82758285Y-158786000D01*
X82901142Y-158714571D01*
X83044000Y-158714571D01*
X83758285Y-159714571D02*
X83615428Y-159643142D01*
X83544000Y-159571714D01*
X83472571Y-159428857D01*
X83472571Y-159000285D01*
X83544000Y-158857428D01*
X83615428Y-158786000D01*
X83758285Y-158714571D01*
X83972571Y-158714571D01*
X84115428Y-158786000D01*
X84186857Y-158857428D01*
X84258285Y-159000285D01*
X84258285Y-159428857D01*
X84186857Y-159571714D01*
X84115428Y-159643142D01*
X83972571Y-159714571D01*
X83758285Y-159714571D01*
D14*
X100472571Y-143940761D02*
X100472571Y-141940761D01*
X101234476Y-141940761D01*
X101424952Y-142036000D01*
X101520190Y-142131238D01*
X101615428Y-142321714D01*
X101615428Y-142607428D01*
X101520190Y-142797904D01*
X101424952Y-142893142D01*
X101234476Y-142988380D01*
X100472571Y-142988380D01*
X102758285Y-143940761D02*
X102567809Y-143845523D01*
X102472571Y-143750285D01*
X102377333Y-143559809D01*
X102377333Y-142988380D01*
X102472571Y-142797904D01*
X102567809Y-142702666D01*
X102758285Y-142607428D01*
X103044000Y-142607428D01*
X103234476Y-142702666D01*
X103329714Y-142797904D01*
X103424952Y-142988380D01*
X103424952Y-143559809D01*
X103329714Y-143750285D01*
X103234476Y-143845523D01*
X103044000Y-143940761D01*
X102758285Y-143940761D01*
X104186857Y-143845523D02*
X104377333Y-143940761D01*
X104758285Y-143940761D01*
X104948761Y-143845523D01*
X105044000Y-143655047D01*
X105044000Y-143559809D01*
X104948761Y-143369333D01*
X104758285Y-143274095D01*
X104472571Y-143274095D01*
X104282095Y-143178857D01*
X104186857Y-142988380D01*
X104186857Y-142893142D01*
X104282095Y-142702666D01*
X104472571Y-142607428D01*
X104758285Y-142607428D01*
X104948761Y-142702666D01*
X105901142Y-143940761D02*
X105901142Y-142607428D01*
X105901142Y-141940761D02*
X105805904Y-142036000D01*
X105901142Y-142131238D01*
X105996380Y-142036000D01*
X105901142Y-141940761D01*
X105901142Y-142131238D01*
X106567809Y-142607428D02*
X107329714Y-142607428D01*
X106853523Y-141940761D02*
X106853523Y-143655047D01*
X106948761Y-143845523D01*
X107139238Y-143940761D01*
X107329714Y-143940761D01*
X107996380Y-143940761D02*
X107996380Y-142607428D01*
X107996380Y-141940761D02*
X107901142Y-142036000D01*
X107996380Y-142131238D01*
X108091619Y-142036000D01*
X107996380Y-141940761D01*
X107996380Y-142131238D01*
X109234476Y-143940761D02*
X109044000Y-143845523D01*
X108948761Y-143750285D01*
X108853523Y-143559809D01*
X108853523Y-142988380D01*
X108948761Y-142797904D01*
X109044000Y-142702666D01*
X109234476Y-142607428D01*
X109520190Y-142607428D01*
X109710666Y-142702666D01*
X109805904Y-142797904D01*
X109901142Y-142988380D01*
X109901142Y-143559809D01*
X109805904Y-143750285D01*
X109710666Y-143845523D01*
X109520190Y-143940761D01*
X109234476Y-143940761D01*
X110758285Y-142607428D02*
X110758285Y-143940761D01*
X110758285Y-142797904D02*
X110853523Y-142702666D01*
X111044000Y-142607428D01*
X111329714Y-142607428D01*
X111520190Y-142702666D01*
X111615428Y-142893142D01*
X111615428Y-143940761D01*
X102329714Y-164845523D02*
X102615428Y-164940761D01*
X103091619Y-164940761D01*
X103282095Y-164845523D01*
X103377333Y-164750285D01*
X103472571Y-164559809D01*
X103472571Y-164369333D01*
X103377333Y-164178857D01*
X103282095Y-164083619D01*
X103091619Y-163988380D01*
X102710666Y-163893142D01*
X102520190Y-163797904D01*
X102424952Y-163702666D01*
X102329714Y-163512190D01*
X102329714Y-163321714D01*
X102424952Y-163131238D01*
X102520190Y-163036000D01*
X102710666Y-162940761D01*
X103186857Y-162940761D01*
X103472571Y-163036000D01*
X105186857Y-164845523D02*
X104996380Y-164940761D01*
X104615428Y-164940761D01*
X104424952Y-164845523D01*
X104329714Y-164750285D01*
X104234476Y-164559809D01*
X104234476Y-163988380D01*
X104329714Y-163797904D01*
X104424952Y-163702666D01*
X104615428Y-163607428D01*
X104996380Y-163607428D01*
X105186857Y-163702666D01*
X106901142Y-164940761D02*
X106901142Y-163893142D01*
X106805904Y-163702666D01*
X106615428Y-163607428D01*
X106234476Y-163607428D01*
X106044000Y-163702666D01*
X106901142Y-164845523D02*
X106710666Y-164940761D01*
X106234476Y-164940761D01*
X106044000Y-164845523D01*
X105948761Y-164655047D01*
X105948761Y-164464571D01*
X106044000Y-164274095D01*
X106234476Y-164178857D01*
X106710666Y-164178857D01*
X106901142Y-164083619D01*
X108139238Y-164940761D02*
X107948761Y-164845523D01*
X107853523Y-164655047D01*
X107853523Y-162940761D01*
X109663047Y-164845523D02*
X109472571Y-164940761D01*
X109091619Y-164940761D01*
X108901142Y-164845523D01*
X108805904Y-164655047D01*
X108805904Y-163893142D01*
X108901142Y-163702666D01*
X109091619Y-163607428D01*
X109472571Y-163607428D01*
X109663047Y-163702666D01*
X109758285Y-163893142D01*
X109758285Y-164083619D01*
X108805904Y-164274095D01*
X97948761Y-88369333D02*
X98901142Y-88369333D01*
X97758285Y-88940761D02*
X98424952Y-86940761D01*
X99091619Y-88940761D01*
X100615428Y-88845523D02*
X100424952Y-88940761D01*
X100044000Y-88940761D01*
X99853523Y-88845523D01*
X99758285Y-88750285D01*
X99663047Y-88559809D01*
X99663047Y-87988380D01*
X99758285Y-87797904D01*
X99853523Y-87702666D01*
X100044000Y-87607428D01*
X100424952Y-87607428D01*
X100615428Y-87702666D01*
X102329714Y-87607428D02*
X102329714Y-89607428D01*
X102329714Y-88845523D02*
X102139238Y-88940761D01*
X101758285Y-88940761D01*
X101567809Y-88845523D01*
X101472571Y-88750285D01*
X101377333Y-88559809D01*
X101377333Y-87988380D01*
X101472571Y-87797904D01*
X101567809Y-87702666D01*
X101758285Y-87607428D01*
X102139238Y-87607428D01*
X102329714Y-87702666D01*
X104139238Y-87607428D02*
X104139238Y-88940761D01*
X103282095Y-87607428D02*
X103282095Y-88655047D01*
X103377333Y-88845523D01*
X103567809Y-88940761D01*
X103853523Y-88940761D01*
X104044000Y-88845523D01*
X104139238Y-88750285D01*
X105091619Y-88940761D02*
X105091619Y-87607428D01*
X105091619Y-86940761D02*
X104996380Y-87036000D01*
X105091619Y-87131238D01*
X105186857Y-87036000D01*
X105091619Y-86940761D01*
X105091619Y-87131238D01*
X106044000Y-88940761D02*
X106044000Y-87607428D01*
X106044000Y-87988380D02*
X106139238Y-87797904D01*
X106234476Y-87702666D01*
X106424952Y-87607428D01*
X106615428Y-87607428D01*
X108044000Y-88845523D02*
X107853523Y-88940761D01*
X107472571Y-88940761D01*
X107282095Y-88845523D01*
X107186857Y-88655047D01*
X107186857Y-87893142D01*
X107282095Y-87702666D01*
X107472571Y-87607428D01*
X107853523Y-87607428D01*
X108044000Y-87702666D01*
X108139238Y-87893142D01*
X108139238Y-88083619D01*
X107186857Y-88274095D01*
X55091619Y-173345523D02*
X55377333Y-173440761D01*
X55853523Y-173440761D01*
X56044000Y-173345523D01*
X56139238Y-173250285D01*
X56234476Y-173059809D01*
X56234476Y-172869333D01*
X56139238Y-172678857D01*
X56044000Y-172583619D01*
X55853523Y-172488380D01*
X55472571Y-172393142D01*
X55282095Y-172297904D01*
X55186857Y-172202666D01*
X55091619Y-172012190D01*
X55091619Y-171821714D01*
X55186857Y-171631238D01*
X55282095Y-171536000D01*
X55472571Y-171440761D01*
X55948761Y-171440761D01*
X56234476Y-171536000D01*
X57091619Y-173440761D02*
X57091619Y-172107428D01*
X57091619Y-171440761D02*
X56996380Y-171536000D01*
X57091619Y-171631238D01*
X57186857Y-171536000D01*
X57091619Y-171440761D01*
X57091619Y-171631238D01*
X58901142Y-172107428D02*
X58901142Y-173726476D01*
X58805904Y-173916952D01*
X58710666Y-174012190D01*
X58520190Y-174107428D01*
X58234476Y-174107428D01*
X58044000Y-174012190D01*
X58901142Y-173345523D02*
X58710666Y-173440761D01*
X58329714Y-173440761D01*
X58139238Y-173345523D01*
X58044000Y-173250285D01*
X57948761Y-173059809D01*
X57948761Y-172488380D01*
X58044000Y-172297904D01*
X58139238Y-172202666D01*
X58329714Y-172107428D01*
X58710666Y-172107428D01*
X58901142Y-172202666D01*
X59853523Y-172678857D02*
X61377333Y-172678857D01*
X63377333Y-171536000D02*
X63186857Y-171440761D01*
X62901142Y-171440761D01*
X62615428Y-171536000D01*
X62424952Y-171726476D01*
X62329714Y-171916952D01*
X62234476Y-172297904D01*
X62234476Y-172583619D01*
X62329714Y-172964571D01*
X62424952Y-173155047D01*
X62615428Y-173345523D01*
X62901142Y-173440761D01*
X63091619Y-173440761D01*
X63377333Y-173345523D01*
X63472571Y-173250285D01*
X63472571Y-172583619D01*
X63091619Y-172583619D01*
X65091619Y-173345523D02*
X64901142Y-173440761D01*
X64520190Y-173440761D01*
X64329714Y-173345523D01*
X64234476Y-173155047D01*
X64234476Y-172393142D01*
X64329714Y-172202666D01*
X64520190Y-172107428D01*
X64901142Y-172107428D01*
X65091619Y-172202666D01*
X65186857Y-172393142D01*
X65186857Y-172583619D01*
X64234476Y-172774095D01*
X66044000Y-172107428D02*
X66044000Y-173440761D01*
X66044000Y-172297904D02*
X66139238Y-172202666D01*
X66329714Y-172107428D01*
X66615428Y-172107428D01*
X66805904Y-172202666D01*
X66901142Y-172393142D01*
X66901142Y-173440761D01*
D15*
X46258285Y-91643142D02*
X46472571Y-91714571D01*
X46829714Y-91714571D01*
X46972571Y-91643142D01*
X47044000Y-91571714D01*
X47115428Y-91428857D01*
X47115428Y-91286000D01*
X47044000Y-91143142D01*
X46972571Y-91071714D01*
X46829714Y-91000285D01*
X46544000Y-90928857D01*
X46401142Y-90857428D01*
X46329714Y-90786000D01*
X46258285Y-90643142D01*
X46258285Y-90500285D01*
X46329714Y-90357428D01*
X46401142Y-90286000D01*
X46544000Y-90214571D01*
X46901142Y-90214571D01*
X47115428Y-90286000D01*
X48329714Y-91643142D02*
X48186857Y-91714571D01*
X47901142Y-91714571D01*
X47758285Y-91643142D01*
X47686857Y-91500285D01*
X47686857Y-90928857D01*
X47758285Y-90786000D01*
X47901142Y-90714571D01*
X48186857Y-90714571D01*
X48329714Y-90786000D01*
X48401142Y-90928857D01*
X48401142Y-91071714D01*
X47686857Y-91214571D01*
X48829714Y-90714571D02*
X49401142Y-90714571D01*
X49044000Y-90214571D02*
X49044000Y-91500285D01*
X49115428Y-91643142D01*
X49258285Y-91714571D01*
X49401142Y-91714571D01*
X50972571Y-91643142D02*
X51115428Y-91714571D01*
X51401142Y-91714571D01*
X51544000Y-91643142D01*
X51615428Y-91500285D01*
X51615428Y-91428857D01*
X51544000Y-91286000D01*
X51401142Y-91214571D01*
X51186857Y-91214571D01*
X51044000Y-91143142D01*
X50972571Y-91000285D01*
X50972571Y-90928857D01*
X51044000Y-90786000D01*
X51186857Y-90714571D01*
X51401142Y-90714571D01*
X51544000Y-90786000D01*
X52472571Y-91714571D02*
X52329714Y-91643142D01*
X52258285Y-91571714D01*
X52186857Y-91428857D01*
X52186857Y-91000285D01*
X52258285Y-90857428D01*
X52329714Y-90786000D01*
X52472571Y-90714571D01*
X52686857Y-90714571D01*
X52829714Y-90786000D01*
X52901142Y-90857428D01*
X52972571Y-91000285D01*
X52972571Y-91428857D01*
X52901142Y-91571714D01*
X52829714Y-91643142D01*
X52686857Y-91714571D01*
X52472571Y-91714571D01*
X54258285Y-90714571D02*
X54258285Y-91714571D01*
X53615428Y-90714571D02*
X53615428Y-91500285D01*
X53686857Y-91643142D01*
X53829714Y-91714571D01*
X54044000Y-91714571D01*
X54186857Y-91643142D01*
X54258285Y-91571714D01*
X54972571Y-91714571D02*
X54972571Y-90714571D01*
X54972571Y-91000285D02*
X55044000Y-90857428D01*
X55115428Y-90786000D01*
X55258285Y-90714571D01*
X55401142Y-90714571D01*
X56544000Y-91643142D02*
X56401142Y-91714571D01*
X56115428Y-91714571D01*
X55972571Y-91643142D01*
X55901142Y-91571714D01*
X55829714Y-91428857D01*
X55829714Y-91000285D01*
X55901142Y-90857428D01*
X55972571Y-90786000D01*
X56115428Y-90714571D01*
X56401142Y-90714571D01*
X56544000Y-90786000D01*
X57758285Y-91643142D02*
X57615428Y-91714571D01*
X57329714Y-91714571D01*
X57186857Y-91643142D01*
X57115428Y-91500285D01*
X57115428Y-90928857D01*
X57186857Y-90786000D01*
X57329714Y-90714571D01*
X57615428Y-90714571D01*
X57758285Y-90786000D01*
X57829714Y-90928857D01*
X57829714Y-91071714D01*
X57115428Y-91214571D01*
D14*
X75186857Y-116940761D02*
X75186857Y-114940761D01*
X76139238Y-115607428D02*
X76139238Y-116940761D01*
X76139238Y-115797904D02*
X76234476Y-115702666D01*
X76424952Y-115607428D01*
X76710666Y-115607428D01*
X76901142Y-115702666D01*
X76996380Y-115893142D01*
X76996380Y-116940761D01*
X77663047Y-115607428D02*
X78424952Y-115607428D01*
X77948761Y-114940761D02*
X77948761Y-116655047D01*
X78044000Y-116845523D01*
X78234476Y-116940761D01*
X78424952Y-116940761D01*
X79853523Y-116845523D02*
X79663047Y-116940761D01*
X79282095Y-116940761D01*
X79091619Y-116845523D01*
X78996380Y-116655047D01*
X78996380Y-115893142D01*
X79091619Y-115702666D01*
X79282095Y-115607428D01*
X79663047Y-115607428D01*
X79853523Y-115702666D01*
X79948761Y-115893142D01*
X79948761Y-116083619D01*
X78996380Y-116274095D01*
X80805904Y-115607428D02*
X80805904Y-116940761D01*
X80805904Y-115797904D02*
X80901142Y-115702666D01*
X81091619Y-115607428D01*
X81377333Y-115607428D01*
X81567809Y-115702666D01*
X81663047Y-115893142D01*
X81663047Y-116940761D01*
X82520190Y-116845523D02*
X82710666Y-116940761D01*
X83091619Y-116940761D01*
X83282095Y-116845523D01*
X83377333Y-116655047D01*
X83377333Y-116559809D01*
X83282095Y-116369333D01*
X83091619Y-116274095D01*
X82805904Y-116274095D01*
X82615428Y-116178857D01*
X82520190Y-115988380D01*
X82520190Y-115893142D01*
X82615428Y-115702666D01*
X82805904Y-115607428D01*
X83091619Y-115607428D01*
X83282095Y-115702666D01*
X84234476Y-116940761D02*
X84234476Y-115607428D01*
X84234476Y-114940761D02*
X84139238Y-115036000D01*
X84234476Y-115131238D01*
X84329714Y-115036000D01*
X84234476Y-114940761D01*
X84234476Y-115131238D01*
X84901142Y-115607428D02*
X85663047Y-115607428D01*
X85186857Y-114940761D02*
X85186857Y-116655047D01*
X85282095Y-116845523D01*
X85472571Y-116940761D01*
X85663047Y-116940761D01*
X86139238Y-115607428D02*
X86615428Y-116940761D01*
X87091619Y-115607428D02*
X86615428Y-116940761D01*
X86424952Y-117416952D01*
X86329714Y-117512190D01*
X86139238Y-117607428D01*
D15*
X104758285Y-158214571D02*
X105758285Y-158214571D01*
X104758285Y-159714571D01*
X105758285Y-159714571D01*
X106901142Y-159643142D02*
X106758285Y-159714571D01*
X106472571Y-159714571D01*
X106329714Y-159643142D01*
X106258285Y-159500285D01*
X106258285Y-158928857D01*
X106329714Y-158786000D01*
X106472571Y-158714571D01*
X106758285Y-158714571D01*
X106901142Y-158786000D01*
X106972571Y-158928857D01*
X106972571Y-159071714D01*
X106258285Y-159214571D01*
X107615428Y-159714571D02*
X107615428Y-158714571D01*
X107615428Y-159000285D02*
X107686857Y-158857428D01*
X107758285Y-158786000D01*
X107901142Y-158714571D01*
X108044000Y-158714571D01*
X108758285Y-159714571D02*
X108615428Y-159643142D01*
X108544000Y-159571714D01*
X108472571Y-159428857D01*
X108472571Y-159000285D01*
X108544000Y-158857428D01*
X108615428Y-158786000D01*
X108758285Y-158714571D01*
X108972571Y-158714571D01*
X109115428Y-158786000D01*
X109186857Y-158857428D01*
X109258285Y-159000285D01*
X109258285Y-159428857D01*
X109186857Y-159571714D01*
X109115428Y-159643142D01*
X108972571Y-159714571D01*
X108758285Y-159714571D01*
M02*
