M48
; DRILL file {KiCad (5.1.6)-1} date 01/18/21 15:00:49
; FORMAT={-:-/ absolute / inch / decimal}
; #@! TF.CreationDate,2021-01-18T15:00:49+00:00
; #@! TF.GenerationSoftware,Kicad,Pcbnew,(5.1.6)-1
; #@! TF.FileFunction,Plated,1,2,PTH
FMAT,2
INCH
T1C0.1181
T2C0.2165
T3C0.2756
T4C0.2953
%
G90
G05
T1
X1.045Y-3.4463
X1.045Y-7.1077
X4.7065Y-3.4463
X4.7065Y-7.1077
T2
X1.2222Y-4.962
X1.2222Y-5.5132
X1.2222Y-6.0644
X1.2222Y-6.6156
X1.675Y-4.1353
X2.2911Y-6.9814
X2.3836Y-4.1353
X2.5608Y-4.962
X2.5608Y-5.5132
X2.5608Y-6.0644
X2.5608Y-6.6156
X3.0923Y-4.1353
X3.5254Y-5.1195
X3.5254Y-7.0093
X3.8994Y-4.1353
X4.5096Y-5.1195
X4.5096Y-7.0093
X4.608Y-4.1353
T3
X1.3403Y-3.8991
X3.1907Y-4.8833
X3.1907Y-5.9463
X3.1907Y-6.7731
X4.175Y-5.9463
X4.175Y-6.7731
T4
X1.5569Y-4.7258
X1.5569Y-5.277
X1.5569Y-5.8282
X1.5569Y-6.3794
X1.8915Y-6.8912
X2.049Y-3.8991
X2.2261Y-4.7258
X2.2261Y-5.277
X2.2261Y-5.8282
X2.2261Y-6.3794
X2.7576Y-3.8991
X3.5647Y-3.8991
X4.175Y-4.8833
X4.2734Y-3.8991
T0
M30
